<svg id="svg" version="1.1" xmlns="http://www.w3.org/2000/svg" xmlns:xlink="http://www.w3.org/1999/xlink" width="400" height="400" viewBox="0, 0, 400,400"><g id="svgg"><path id="path0" d="M8.629 8.629 C 7.869 9.388,7.656 52.611,8.405 54.010 C 8.628 54.426,9.590 55.112,10.542 55.533 C 12.120 56.231,14.000 58.170,14.000 59.100 C 14.000 59.680,15.323 60.745,17.251 61.718 C 18.498 62.347,19.249 63.094,19.869 64.321 C 21.068 66.697,21.527 67.177,23.267 67.874 C 24.463 68.352,25.000 68.928,25.829 70.622 C 27.047 73.112,27.522 73.573,29.754 74.435 C 31.012 74.920,31.613 75.483,32.301 76.821 C 33.429 79.014,33.801 79.384,36.013 80.499 C 37.308 81.152,38.043 81.882,38.682 83.149 C 42.069 89.862,42.380 88.374,42.393 65.400 C 42.403 47.071,42.438 46.142,43.184 44.919 C 44.841 42.201,39.129 42.401,115.480 42.387 C 173.349 42.377,184.718 42.285,185.322 41.827 C 185.719 41.526,186.439 40.496,186.922 39.540 C 187.528 38.339,188.295 37.552,189.400 37.000 C 191.680 35.860,191.588 36.357,191.588 25.200 C 191.588 14.043,191.680 14.540,189.400 13.400 C 188.276 12.838,187.531 12.065,186.897 10.800 C 186.400 9.810,185.691 8.775,185.321 8.500 C 184.179 7.652,9.478 7.779,8.629 8.629 M215.079 8.500 C 214.709 8.775,214.000 9.810,213.503 10.800 C 212.871 12.061,212.122 12.840,211.005 13.400 C 208.360 14.727,208.425 14.427,208.425 25.200 C 208.425 35.973,208.360 35.673,211.005 37.000 C 212.106 37.552,212.874 38.342,213.483 39.551 C 215.067 42.689,211.131 42.454,258.692 42.260 C 306.824 42.064,304.504 42.185,305.549 39.821 C 306.234 38.273,308.178 36.400,309.100 36.400 C 309.680 36.400,310.745 35.077,311.718 33.149 C 312.357 31.882,313.092 31.152,314.387 30.499 C 316.599 29.384,316.971 29.014,318.099 26.821 C 318.798 25.462,319.380 24.925,320.698 24.423 C 322.834 23.609,323.609 22.834,324.423 20.698 C 324.925 19.380,325.462 18.798,326.821 18.099 C 329.014 16.971,329.384 16.599,330.499 14.387 C 331.152 13.092,331.882 12.357,333.149 11.718 C 336.123 10.217,336.649 9.569,335.587 8.709 C 334.452 7.790,216.313 7.584,215.079 8.500 M346.313 8.425 C 345.935 8.645,345.269 9.633,344.832 10.620 C 344.329 11.758,343.572 12.669,342.764 13.108 C 340.701 14.229,339.649 15.287,338.697 17.200 C 338.046 18.506,337.328 19.238,336.079 19.869 C 333.703 21.068,333.223 21.527,332.526 23.267 C 332.049 24.460,331.472 25.000,329.796 25.820 C 327.409 26.987,326.996 27.412,325.659 30.073 C 324.957 31.469,324.340 32.097,323.236 32.539 C 321.528 33.222,321.064 33.710,319.869 36.079 C 319.249 37.306,318.498 38.053,317.251 38.682 C 310.542 42.067,312.035 42.380,334.920 42.391 C 356.019 42.401,355.655 42.360,357.216 44.919 C 357.983 46.176,357.997 47.472,357.999 115.424 C 358.000 170.175,358.105 184.788,358.500 185.321 C 358.775 185.691,359.810 186.400,360.800 186.897 C 362.065 187.531,362.838 188.276,363.400 189.400 C 364.540 191.680,364.043 191.588,375.200 191.588 C 386.357 191.588,385.860 191.680,387.000 189.400 C 387.552 188.295,388.339 187.528,389.540 186.922 C 390.496 186.439,391.526 185.719,391.827 185.322 C 392.807 184.029,392.651 9.551,391.669 8.662 C 390.802 7.877,347.639 7.652,346.313 8.425 M8.650 64.850 C 7.783 66.088,7.636 184.157,8.500 185.321 C 8.775 185.691,9.810 186.400,10.800 186.897 C 12.065 187.531,12.838 188.276,13.400 189.400 C 14.540 191.680,14.043 191.588,25.200 191.588 C 36.357 191.588,35.860 191.680,37.000 189.400 C 37.554 188.292,38.338 187.528,39.551 186.917 C 42.689 185.333,42.454 189.269,42.260 141.708 C 42.063 93.404,42.197 95.902,39.750 94.819 C 38.640 94.328,37.728 93.565,37.292 92.764 C 36.171 90.701,35.113 89.649,33.200 88.697 C 31.873 88.036,31.163 87.330,30.499 86.013 C 29.384 83.801,29.014 83.429,26.821 82.301 C 25.483 81.613,24.920 81.012,24.435 79.754 C 23.573 77.522,23.112 77.047,20.622 75.829 C 18.928 75.000,18.352 74.463,17.874 73.267 C 17.177 71.527,16.697 71.068,14.321 69.869 C 13.081 69.243,12.347 68.499,11.696 67.207 C 10.233 64.306,9.454 63.703,8.650 64.850 M90.449 90.541 C 90.117 90.941,90.024 104.425,90.098 141.243 L 90.200 191.400 96.800 191.514 C 100.430 191.577,103.805 191.529,104.300 191.407 L 105.200 191.185 105.200 149.792 L 105.200 108.400 106.800 106.800 L 108.400 105.200 149.792 105.200 L 191.185 105.200 191.407 104.300 C 191.529 103.805,191.577 100.430,191.514 96.800 L 191.400 90.200 141.150 90.098 C 99.161 90.014,90.826 90.086,90.449 90.541 M202.880 90.480 C 202.170 91.190,202.238 103.553,202.957 104.500 C 203.457 105.159,206.047 105.200,247.364 105.200 C 295.432 105.200,292.590 105.058,294.368 107.556 C 295.198 108.720,295.200 108.843,295.200 149.954 L 295.200 191.185 296.100 191.407 C 296.595 191.529,299.970 191.577,303.600 191.514 L 310.200 191.400 310.302 141.243 C 310.376 104.509,310.283 90.940,309.953 90.543 C 309.327 89.789,203.633 89.727,202.880 90.480 M121.444 114.751 C 121.071 115.164,120.368 116.289,119.882 117.251 C 119.249 118.507,118.507 119.249,117.251 119.882 C 113.643 121.703,114.000 117.665,114.000 156.616 L 114.000 191.108 115.018 191.775 C 116.598 192.810,185.375 192.254,186.068 191.200 C 186.141 191.090,186.560 190.280,187.001 189.401 C 187.534 188.336,188.336 187.534,189.401 187.001 C 190.280 186.560,191.090 186.141,191.200 186.068 C 192.254 185.375,192.810 116.598,191.775 115.018 L 191.108 114.000 156.616 114.000 C 123.383 114.000,122.099 114.027,121.444 114.751 M202.449 114.948 L 201.558 115.896 201.767 146.048 C 202.043 185.913,202.011 185.505,205.000 187.000 C 206.122 187.561,206.871 188.338,207.507 189.600 L 208.414 191.400 222.307 191.677 C 266.880 192.565,282.837 192.482,285.800 191.344 C 286.327 191.143,286.400 186.901,286.400 156.619 C 286.400 117.665,286.757 121.703,283.149 119.882 C 281.893 119.249,281.151 118.507,280.518 117.251 C 278.694 113.637,283.127 114.000,240.808 114.000 L 203.339 114.000 202.449 114.948 M114.889 202.505 L 114.000 203.452 114.000 240.864 C 114.000 283.119,113.637 278.694,117.251 280.518 C 118.507 281.151,119.249 281.893,119.882 283.149 C 121.706 286.763,117.273 286.400,159.592 286.400 L 197.061 286.400 197.951 285.452 L 198.842 284.503 198.633 251.152 C 198.518 232.808,198.284 215.741,198.112 213.225 L 197.800 208.650 195.800 207.625 C 194.359 206.887,193.576 206.156,193.000 205.013 C 192.560 204.140,191.996 203.203,191.746 202.930 C 191.133 202.261,182.988 202.057,145.989 201.783 L 115.778 201.559 114.889 202.505 M237.800 202.015 C 236.480 202.179,230.900 202.338,225.400 202.369 C 214.422 202.431,214.725 202.364,213.400 205.005 C 212.821 206.159,212.046 206.884,210.600 207.625 L 208.600 208.651 208.350 215.825 C 207.760 232.753,207.963 284.569,208.623 285.511 L 209.245 286.400 243.761 286.400 C 282.738 286.400,278.697 286.757,280.518 283.149 C 281.151 281.893,281.893 281.151,283.149 280.518 C 286.763 278.694,286.400 283.123,286.400 240.834 C 286.400 204.065,286.386 203.384,285.615 202.902 C 283.719 201.718,245.856 201.016,237.800 202.015 M295.900 202.957 C 295.241 203.457,295.200 206.047,295.200 247.364 C 295.200 295.807,295.362 292.781,292.681 294.416 C 291.434 295.176,290.385 295.197,253.570 295.199 L 215.739 295.200 214.870 296.126 C 213.662 297.412,213.519 308.947,214.700 309.843 C 215.679 310.586,309.178 310.662,309.920 309.920 C 310.617 309.223,310.617 203.577,309.920 202.880 C 309.210 202.170,296.847 202.238,295.900 202.957 M14.800 208.918 C 14.470 209.189,13.840 210.128,13.400 211.005 C 12.840 212.122,12.061 212.871,10.800 213.503 C 9.810 214.000,8.775 214.709,8.500 215.079 C 7.563 216.342,7.791 390.887,8.731 391.738 C 9.394 392.337,11.543 392.399,31.431 392.391 C 55.858 392.381,54.466 392.538,55.595 389.676 C 56.094 388.411,58.231 386.400,59.076 386.400 C 59.678 386.400,60.731 385.105,61.718 383.149 C 62.357 381.882,63.092 381.152,64.387 380.499 C 66.599 379.384,66.971 379.014,68.099 376.821 C 68.798 375.462,69.380 374.925,70.698 374.423 C 72.834 373.609,73.609 372.834,74.423 370.698 C 74.925 369.380,75.462 368.798,76.821 368.099 C 79.014 366.971,79.384 366.599,80.499 364.387 C 81.152 363.092,81.882 362.357,83.149 361.718 C 89.906 358.309,88.444 358.000,65.536 358.000 C 44.372 358.000,44.746 358.042,43.184 355.481 C 42.417 354.224,42.403 352.916,42.389 285.000 C 42.377 227.065,42.285 215.682,41.827 215.078 C 41.526 214.681,40.496 213.961,39.540 213.478 C 38.342 212.874,37.551 212.103,37.000 211.005 C 36.560 210.128,35.930 209.189,35.600 208.918 C 34.744 208.216,15.656 208.216,14.800 208.918 M90.480 208.880 C 89.783 209.577,89.783 309.223,90.480 309.920 C 91.121 310.561,96.879 310.561,97.520 309.920 C 98.217 309.223,98.217 209.577,97.520 208.880 C 97.231 208.591,95.831 208.400,94.000 208.400 C 92.169 208.400,90.769 208.591,90.480 208.880 M364.800 208.918 C 364.470 209.189,363.840 210.128,363.400 211.005 C 362.831 212.139,362.041 212.889,360.668 213.600 C 357.761 215.104,357.940 211.920,358.084 259.707 C 358.227 306.799,358.099 304.452,360.580 305.550 C 362.127 306.234,364.000 308.178,364.000 309.100 C 364.000 309.680,365.323 310.745,367.251 311.718 C 368.498 312.347,369.249 313.094,369.869 314.321 C 371.068 316.697,371.527 317.177,373.267 317.874 C 374.463 318.352,375.000 318.928,375.829 320.622 C 377.047 323.112,377.522 323.573,379.754 324.435 C 381.012 324.920,381.613 325.483,382.301 326.821 C 383.429 329.014,383.801 329.384,386.013 330.499 C 387.308 331.152,388.043 331.882,388.682 333.149 C 390.190 336.137,390.817 336.634,391.673 335.522 C 392.635 334.272,392.785 216.342,391.827 215.078 C 391.526 214.681,390.496 213.961,389.540 213.478 C 388.342 212.874,387.551 212.103,387.000 211.005 C 386.560 210.128,385.930 209.189,385.600 208.918 C 384.744 208.216,365.656 208.216,364.800 208.918 M108.896 295.995 C 108.214 297.088,108.199 309.239,108.880 309.920 C 109.657 310.697,191.050 310.607,191.829 309.829 C 192.710 308.947,192.648 297.550,191.754 296.186 L 191.108 295.200 150.250 295.200 C 109.919 295.200,109.386 295.210,108.896 295.995 M358.650 314.850 C 358.072 315.675,358.000 317.905,357.999 334.989 C 357.997 353.337,357.962 354.258,357.216 355.481 C 355.559 358.199,361.277 358.000,284.896 358.000 C 230.207 358.000,215.612 358.105,215.079 358.500 C 214.709 358.775,214.000 359.810,213.503 360.800 C 212.871 362.061,212.122 362.840,211.005 363.400 C 208.360 364.727,208.425 364.427,208.425 375.200 C 208.425 385.973,208.360 385.673,211.005 387.000 C 212.103 387.551,212.874 388.342,213.478 389.540 C 213.961 390.496,214.681 391.526,215.078 391.827 C 216.371 392.807,390.849 392.651,391.738 391.669 C 392.337 391.006,392.399 388.860,392.387 368.969 C 392.373 344.572,392.546 346.074,389.603 344.757 C 388.635 344.324,387.702 343.518,387.290 342.760 C 386.171 340.701,385.112 339.649,383.200 338.697 C 381.873 338.036,381.163 337.330,380.499 336.013 C 379.384 333.801,379.014 333.429,376.821 332.301 C 375.483 331.613,374.920 331.012,374.435 329.754 C 373.573 327.522,373.112 327.047,370.622 325.829 C 368.928 325.000,368.352 324.463,367.874 323.267 C 367.177 321.527,366.697 321.068,364.321 319.869 C 363.081 319.243,362.347 318.499,361.696 317.207 C 360.233 314.306,359.454 313.703,358.650 314.850 M100.000 358.279 C 96.021 358.471,95.724 358.605,94.836 360.611 C 94.329 361.758,93.574 362.668,92.764 363.108 C 90.701 364.229,89.649 365.287,88.697 367.200 C 88.046 368.506,87.328 369.238,86.079 369.869 C 83.710 371.064,83.222 371.528,82.539 373.236 C 82.097 374.340,81.469 374.957,80.073 375.659 C 77.412 376.996,76.987 377.409,75.820 379.796 C 75.000 381.472,74.460 382.049,73.267 382.526 C 71.527 383.223,71.068 383.703,69.869 386.079 C 69.249 387.306,68.498 388.053,67.251 388.682 C 64.263 390.190,63.766 390.817,64.878 391.673 C 66.128 392.635,184.058 392.785,185.322 391.827 C 185.719 391.526,186.439 390.496,186.922 389.540 C 187.528 388.339,188.295 387.552,189.400 387.000 C 191.680 385.860,191.588 386.357,191.588 375.200 C 191.588 364.043,191.680 364.540,189.400 363.400 C 188.276 362.838,187.531 362.065,186.897 360.800 C 186.400 359.810,185.691 358.775,185.321 358.500 C 184.705 358.043,108.969 357.847,100.000 358.279 " stroke="none" fill="#d4d484" fill-rule="evenodd"></path><path id="path1" d="M0.000 200.000 L 0.000 400.000 200.000 400.000 L 400.000 400.000 400.000 200.000 L 400.000 0.000 200.000 0.000 L 0.000 0.000 0.000 200.000 M187.833 7.488 C 190.468 9.900,191.469 11.136,192.404 13.133 L 193.600 15.690 193.600 25.209 L 193.600 34.728 192.447 37.167 C 191.812 38.508,191.047 39.900,190.747 40.260 C 190.446 40.621,189.930 41.636,189.600 42.516 C 189.270 43.397,188.492 44.496,187.871 44.959 L 186.741 45.800 116.908 45.903 C 67.164 45.977,46.923 46.132,46.548 46.443 C 46.128 46.791,45.999 50.930,45.911 66.811 C 45.785 89.400,45.949 88.319,42.464 89.615 C 40.076 90.502,39.621 91.076,40.914 91.567 C 42.368 92.120,43.067 93.376,43.603 96.400 C 43.856 97.830,44.502 100.100,45.037 101.445 L 46.011 103.890 45.906 145.316 C 45.786 192.274,46.093 188.260,42.516 189.600 C 41.636 189.930,40.621 190.446,40.260 190.747 C 39.900 191.047,38.508 191.812,37.167 192.447 L 34.728 193.600 25.209 193.600 L 15.690 193.600 13.133 192.404 C 11.135 191.469,9.900 190.468,7.484 187.829 L 4.392 184.450 4.496 124.054 L 4.600 63.659 5.441 62.529 C 5.904 61.908,6.984 61.130,7.841 60.800 C 10.721 59.692,11.043 58.400,8.440 58.400 C 6.994 58.400,5.628 57.365,4.958 55.761 C 4.016 53.507,4.147 9.109,5.101 7.200 C 6.628 4.142,-1.829 4.401,96.529 4.401 L 184.459 4.400 187.833 7.488 M337.192 5.101 C 338.514 5.765,338.890 6.265,340.086 8.956 C 340.820 10.606,341.185 10.463,341.937 8.233 C 343.240 4.367,341.490 4.615,368.329 4.496 C 394.613 4.379,393.852 4.302,395.299 7.200 C 395.959 8.520,395.999 13.618,395.999 96.535 L 396.000 184.470 392.865 187.853 C 390.480 190.425,389.130 191.518,387.229 192.417 L 384.728 193.600 375.200 193.600 L 365.672 193.600 363.233 192.447 C 361.892 191.812,360.500 191.047,360.140 190.747 C 359.779 190.446,358.764 189.930,357.884 189.600 C 357.003 189.270,355.904 188.492,355.441 187.871 L 354.600 186.741 354.497 116.908 C 354.422 66.310,354.271 46.926,353.948 46.537 C 353.586 46.101,349.837 46.000,334.051 45.999 C 310.895 45.999,312.425 46.294,310.314 41.411 C 309.676 39.935,309.152 39.906,308.480 41.308 C 307.815 42.695,307.163 43.027,303.990 43.598 C 302.565 43.854,300.300 44.502,298.955 45.037 L 296.510 46.011 255.084 45.906 C 208.109 45.786,212.135 46.096,210.798 42.499 C 210.467 41.608,209.908 40.547,209.555 40.140 C 207.185 37.408,206.800 35.318,206.800 25.200 C 206.800 13.337,206.961 12.828,212.344 7.718 L 215.800 4.437 275.800 4.419 C 332.146 4.402,335.885 4.444,337.192 5.101 M334.048 15.342 C 333.700 15.762,333.722 16.003,334.142 16.352 C 334.562 16.700,334.803 16.678,335.152 16.258 C 335.500 15.838,335.478 15.597,335.058 15.248 C 334.638 14.900,334.397 14.922,334.048 15.342 M327.648 21.742 C 327.300 22.162,327.322 22.403,327.742 22.752 C 328.162 23.100,328.403 23.078,328.752 22.658 C 329.100 22.238,329.078 21.997,328.658 21.648 C 328.238 21.300,327.997 21.322,327.648 21.742 M321.648 27.742 C 321.300 28.162,321.322 28.403,321.742 28.752 C 322.162 29.100,322.403 29.078,322.752 28.658 C 323.100 28.238,323.078 27.997,322.658 27.648 C 322.238 27.300,321.997 27.322,321.648 27.742 M315.248 34.142 C 314.900 34.562,314.922 34.803,315.342 35.152 C 315.762 35.500,316.003 35.478,316.352 35.058 C 316.700 34.638,316.678 34.397,316.258 34.048 C 315.838 33.700,315.597 33.722,315.248 34.142 M15.248 65.342 C 14.900 65.762,14.922 66.003,15.342 66.352 C 15.762 66.700,16.003 66.678,16.352 66.258 C 16.700 65.838,16.678 65.597,16.258 65.248 C 15.838 64.900,15.597 64.922,15.248 65.342 M21.648 71.742 C 21.300 72.162,21.322 72.403,21.742 72.752 C 22.162 73.100,22.403 73.078,22.752 72.658 C 23.100 72.238,23.078 71.997,22.658 71.648 C 22.238 71.300,21.997 71.322,21.648 71.742 M27.648 77.742 C 27.300 78.162,27.322 78.403,27.742 78.752 C 28.162 79.100,28.403 79.078,28.752 78.658 C 29.100 78.238,29.078 77.997,28.658 77.648 C 28.238 77.300,27.997 77.322,27.648 77.742 M34.048 84.142 C 33.700 84.562,33.722 84.803,34.142 85.152 C 34.562 85.500,34.803 85.478,35.152 85.058 C 35.500 84.638,35.478 84.397,35.058 84.048 C 34.638 83.700,34.397 83.722,34.048 84.142 M192.359 89.414 L 193.600 90.828 193.600 97.264 C 193.600 103.357,193.544 103.825,192.545 106.050 L 191.491 108.400 150.425 108.400 C 119.019 108.400,109.247 108.513,108.880 108.880 C 108.513 109.247,108.400 119.019,108.400 150.425 L 108.400 191.491 106.050 192.545 C 103.825 193.544,103.357 193.600,97.264 193.600 L 90.828 193.600 89.393 192.340 L 87.958 191.080 88.034 140.845 L 88.111 90.609 89.415 89.305 L 90.720 88.000 140.919 88.000 L 191.117 88.000 192.359 89.414 M311.093 89.413 L 312.400 90.720 312.400 140.919 L 312.400 191.117 310.986 192.359 L 309.572 193.600 303.086 193.600 C 296.732 193.599,296.549 193.575,294.102 192.418 L 291.604 191.236 291.502 149.918 L 291.400 108.600 247.000 108.400 L 202.600 108.200 201.500 106.028 C 200.433 103.921,200.400 103.661,200.400 97.288 L 200.400 90.720 201.781 89.339 L 203.161 87.959 256.474 88.032 L 309.786 88.106 311.093 89.413 M193.554 113.015 L 196.000 115.629 196.000 143.766 L 196.000 171.903 194.925 174.252 C 194.035 176.195,193.807 177.393,193.601 181.200 C 193.120 190.102,190.100 193.122,181.200 193.602 C 177.392 193.807,176.196 194.034,174.252 194.925 L 171.903 196.000 143.766 196.000 L 115.629 196.000 113.008 193.548 L 110.387 191.096 110.494 155.577 C 110.615 115.197,110.313 118.469,114.033 117.195 C 116.465 116.361,116.661 116.196,116.954 114.729 C 117.863 110.184,115.600 110.434,156.054 110.416 L 191.108 110.400 193.554 113.015 M281.471 111.433 C 282.128 111.917,282.863 113.045,283.229 114.129 C 284.002 116.416,283.984 116.398,286.271 117.171 C 290.103 118.465,289.785 115.098,289.906 155.618 L 290.013 191.177 288.316 192.043 C 287.383 192.519,284.815 193.547,282.610 194.327 L 278.600 195.746 260.051 195.881 L 241.502 196.016 238.851 194.908 L 236.200 193.800 222.400 193.600 C 208.869 193.404,208.565 193.382,206.800 192.457 C 202.171 190.031,200.738 187.513,200.398 181.200 C 200.193 177.392,199.966 176.196,199.075 174.252 L 198.000 171.903 198.000 143.715 L 198.000 115.526 200.569 112.957 L 203.138 110.388 241.740 110.494 C 280.134 110.599,280.348 110.604,281.471 111.433 M174.252 199.100 C 176.490 200.148,176.957 200.209,184.200 200.400 C 192.722 200.624,193.211 200.759,196.333 203.743 C 199.138 206.424,199.742 207.942,200.021 213.000 C 200.212 216.456,200.493 217.965,201.332 220.031 L 202.400 222.663 202.400 253.768 L 202.400 284.874 199.831 287.443 L 197.262 290.012 158.660 289.906 C 114.676 289.785,118.470 290.118,117.171 286.271 C 116.398 283.984,116.416 284.002,114.129 283.229 C 110.282 281.930,110.615 285.724,110.494 241.740 L 110.388 203.138 112.957 200.569 L 115.526 198.000 143.715 198.000 L 171.903 198.000 174.252 199.100 M283.118 199.856 C 285.604 200.745,288.124 201.835,288.718 202.279 L 289.800 203.086 289.800 241.714 C 289.800 285.745,290.124 281.928,286.271 283.229 C 283.984 284.002,284.002 283.984,283.229 286.271 C 281.935 290.103,285.296 289.785,244.823 289.906 L 209.304 290.013 206.852 287.392 L 204.400 284.771 204.400 253.717 L 204.400 222.663 205.468 220.031 C 206.299 217.985,206.594 216.422,206.796 213.000 C 207.097 207.929,207.861 205.853,210.277 203.544 C 213.314 200.641,213.400 200.623,225.400 200.395 C 235.976 200.195,236.250 200.168,238.600 199.136 L 241.000 198.083 259.800 198.162 L 278.600 198.241 283.118 199.856 M310.700 201.747 C 312.429 203.717,312.452 204.515,312.365 260.256 L 312.288 309.792 310.984 311.096 L 309.680 312.400 262.540 312.391 C 204.345 312.380,210.400 313.513,210.401 302.638 C 210.402 290.363,205.611 291.601,253.100 291.601 L 291.600 291.600 291.600 247.462 C 291.600 197.719,291.244 202.847,294.807 201.231 C 296.369 200.522,297.431 200.416,303.059 200.409 L 309.517 200.400 310.700 201.747 M37.052 207.856 C 38.343 208.438,39.733 209.202,40.140 209.555 C 40.547 209.908,41.608 210.467,42.499 210.798 C 43.389 211.129,44.496 211.908,44.959 212.529 L 45.800 213.659 45.903 283.492 C 45.977 333.236,46.132 353.477,46.443 353.852 C 46.791 354.272,50.930 354.401,66.811 354.489 C 89.400 354.615,88.319 354.451,89.615 357.936 C 90.502 360.324,91.076 360.779,91.567 359.486 C 92.120 358.032,93.376 357.333,96.400 356.797 C 97.830 356.544,100.100 355.898,101.445 355.363 L 103.890 354.389 145.316 354.494 C 192.274 354.614,188.260 354.307,189.600 357.884 C 189.930 358.764,190.446 359.779,190.747 360.140 C 191.047 360.500,191.812 361.892,192.447 363.233 L 193.600 365.672 193.600 375.200 L 193.600 384.728 192.417 387.229 C 191.518 389.131,190.425 390.480,187.849 392.868 L 184.462 396.008 124.060 395.904 L 63.659 395.800 62.529 394.959 C 61.908 394.496,61.130 393.416,60.800 392.559 C 59.692 389.679,58.400 389.357,58.400 391.960 C 58.400 393.406,57.365 394.772,55.761 395.442 C 53.507 396.384,9.109 396.253,7.200 395.299 C 4.142 393.772,4.401 402.229,4.401 303.871 L 4.400 215.941 7.500 212.537 C 9.854 209.951,11.177 208.860,13.000 208.000 L 15.400 206.869 25.052 206.834 C 34.660 206.800,34.714 206.805,37.052 207.856 M98.246 207.686 C 98.881 208.174,99.532 208.759,99.694 208.986 C 100.081 209.531,100.048 303.803,99.659 307.295 C 99.201 311.414,98.086 312.400,93.885 312.400 C 90.819 312.400,90.678 312.358,89.360 311.040 L 88.000 309.680 88.006 259.540 C 88.009 231.963,88.144 209.214,88.306 208.986 C 89.450 207.375,90.948 206.800,94.000 206.800 C 96.578 206.800,97.284 206.947,98.246 207.686 M387.245 207.977 C 389.264 208.907,390.450 209.865,392.900 212.547 L 396.000 215.940 395.999 275.870 C 395.999 345.275,396.527 337.826,391.444 340.086 C 389.857 340.792,390.039 341.217,392.247 341.963 C 396.019 343.236,395.785 341.548,395.904 368.329 C 396.021 394.613,396.098 393.852,393.200 395.299 C 391.880 395.959,386.782 395.999,303.870 395.999 L 215.940 396.000 212.547 392.900 C 209.865 390.450,208.907 389.264,207.977 387.245 L 206.800 384.689 206.800 375.193 C 206.800 365.082,207.186 362.992,209.555 360.260 C 209.908 359.853,210.467 358.792,210.798 357.901 C 211.129 357.011,211.908 355.904,212.529 355.441 L 213.659 354.600 283.492 354.497 C 334.090 354.422,353.474 354.271,353.863 353.948 C 354.299 353.586,354.400 349.837,354.401 334.051 C 354.401 310.903,354.100 312.473,358.956 310.314 C 360.390 309.676,360.419 309.152,359.059 308.480 C 357.704 307.810,357.369 307.144,356.802 303.990 C 356.546 302.565,355.898 300.300,355.363 298.955 L 354.389 296.510 354.494 255.084 C 354.614 208.126,354.307 212.140,357.884 210.800 C 358.764 210.470,359.804 209.930,360.193 209.600 C 363.032 207.197,364.784 206.871,375.045 206.834 L 384.689 206.800 387.245 207.977 M193.200 292.301 C 195.645 293.522,195.999 294.833,195.999 302.681 L 196.000 309.562 193.579 310.981 L 191.157 312.400 150.184 312.400 L 109.211 312.400 108.188 310.853 C 105.928 307.439,106.396 295.411,108.917 292.100 C 109.605 291.196,191.379 291.391,193.200 292.301 M365.248 315.342 C 364.900 315.762,364.922 316.003,365.342 316.352 C 365.762 316.700,366.003 316.678,366.352 316.258 C 366.700 315.838,366.678 315.597,366.258 315.248 C 365.838 314.900,365.597 314.922,365.248 315.342 M371.648 321.742 C 371.300 322.162,371.322 322.403,371.742 322.752 C 372.162 323.100,372.403 323.078,372.752 322.658 C 373.100 322.238,373.078 321.997,372.658 321.648 C 372.238 321.300,371.997 321.322,371.648 321.742 M377.648 327.742 C 377.300 328.162,377.322 328.403,377.742 328.752 C 378.162 329.100,378.403 329.078,378.752 328.658 C 379.100 328.238,379.078 327.997,378.658 327.648 C 378.238 327.300,377.997 327.322,377.648 327.742 M384.048 334.142 C 383.700 334.562,383.722 334.803,384.142 335.152 C 384.562 335.500,384.803 335.478,385.152 335.058 C 385.500 334.638,385.478 334.397,385.058 334.048 C 384.638 333.700,384.397 333.722,384.048 334.142 M84.048 365.342 C 83.700 365.762,83.722 366.003,84.142 366.352 C 84.562 366.700,84.803 366.678,85.152 366.258 C 85.500 365.838,85.478 365.597,85.058 365.248 C 84.638 364.900,84.397 364.922,84.048 365.342 M77.648 371.742 C 77.300 372.162,77.322 372.403,77.742 372.752 C 78.162 373.100,78.403 373.078,78.752 372.658 C 79.100 372.238,79.078 371.997,78.658 371.648 C 78.238 371.300,77.997 371.322,77.648 371.742 M71.648 377.742 C 71.300 378.162,71.322 378.403,71.742 378.752 C 72.162 379.100,72.403 379.078,72.752 378.658 C 73.100 378.238,73.078 377.997,72.658 377.648 C 72.238 377.300,71.997 377.322,71.648 377.742 M65.248 384.142 C 64.900 384.562,64.922 384.803,65.342 385.152 C 65.762 385.500,66.003 385.478,66.352 385.058 C 66.700 384.638,66.678 384.397,66.258 384.048 C 65.838 383.700,65.597 383.722,65.248 384.142 " stroke="none" fill="#a54162" fill-rule="evenodd"></path><path id="path2" d="M7.200 5.101 C 4.332 6.533,4.401 5.882,4.401 31.513 C 4.400 58.009,4.459 58.400,8.440 58.400 C 11.043 58.400,10.721 59.692,7.841 60.800 C 6.984 61.130,5.904 61.908,5.441 62.529 L 4.600 63.659 4.496 124.054 L 4.392 184.450 7.484 187.829 C 9.900 190.468,11.135 191.469,13.133 192.404 L 15.690 193.600 25.209 193.600 L 34.728 193.600 37.167 192.447 C 38.508 191.812,39.900 191.047,40.260 190.747 C 40.621 190.446,41.636 189.930,42.516 189.600 C 46.093 188.260,45.786 192.274,45.906 145.316 L 46.011 103.890 45.037 101.445 C 44.502 100.100,43.856 97.830,43.603 96.400 C 43.067 93.376,42.368 92.120,40.914 91.567 C 39.621 91.076,40.076 90.502,42.464 89.615 C 45.949 88.319,45.785 89.400,45.911 66.811 C 45.999 50.930,46.128 46.791,46.548 46.443 C 46.923 46.132,67.164 45.977,116.908 45.903 L 186.741 45.800 187.871 44.959 C 188.492 44.496,189.270 43.397,189.600 42.516 C 189.930 41.636,190.446 40.621,190.747 40.260 C 191.047 39.900,191.812 38.508,192.447 37.167 L 193.600 34.728 193.600 25.209 L 193.600 15.690 192.404 13.133 C 191.469 11.136,190.468 9.900,187.833 7.488 L 184.459 4.400 96.529 4.401 C 13.618 4.401,8.520 4.441,7.200 5.101 M212.344 7.718 C 206.961 12.828,206.800 13.337,206.800 25.200 C 206.800 35.318,207.185 37.408,209.555 40.140 C 209.908 40.547,210.467 41.608,210.798 42.499 C 212.135 46.096,208.109 45.786,255.084 45.906 L 296.510 46.011 298.955 45.037 C 300.300 44.502,302.565 43.854,303.990 43.598 C 307.163 43.027,307.815 42.695,308.480 41.308 C 309.152 39.906,309.676 39.935,310.314 41.411 C 312.425 46.294,310.895 45.999,334.051 45.999 C 349.837 46.000,353.586 46.101,353.948 46.537 C 354.271 46.926,354.422 66.310,354.497 116.908 L 354.600 186.741 355.441 187.871 C 355.904 188.492,357.003 189.270,357.884 189.600 C 358.764 189.930,359.779 190.446,360.140 190.747 C 360.500 191.047,361.892 191.812,363.233 192.447 L 365.672 193.600 375.200 193.600 L 384.728 193.600 387.229 192.417 C 389.130 191.518,390.480 190.425,392.865 187.853 L 396.000 184.470 395.999 96.535 C 395.999 13.618,395.959 8.520,395.299 7.200 C 393.852 4.302,394.613 4.379,368.329 4.496 C 341.490 4.615,343.240 4.367,341.937 8.233 C 341.185 10.463,340.820 10.606,340.086 8.956 C 337.826 3.872,345.288 4.398,275.800 4.419 L 215.800 4.437 212.344 7.718 M185.321 8.500 C 185.691 8.775,186.400 9.810,186.897 10.800 C 187.531 12.065,188.276 12.838,189.400 13.400 C 191.680 14.540,191.588 14.043,191.588 25.200 C 191.588 36.357,191.680 35.860,189.400 37.000 C 188.295 37.552,187.528 38.339,186.922 39.540 C 186.439 40.496,185.719 41.526,185.322 41.827 C 184.718 42.285,173.349 42.377,115.480 42.387 C 39.129 42.401,44.841 42.201,43.184 44.919 C 42.438 46.142,42.403 47.071,42.393 65.400 C 42.380 88.374,42.069 89.862,38.682 83.149 C 38.043 81.882,37.308 81.152,36.013 80.499 C 33.801 79.384,33.429 79.014,32.301 76.821 C 31.613 75.483,31.012 74.920,29.754 74.435 C 27.522 73.573,27.047 73.112,25.829 70.622 C 25.000 68.928,24.463 68.352,23.267 67.874 C 21.527 67.177,21.068 66.697,19.869 64.321 C 19.249 63.094,18.498 62.347,17.251 61.718 C 15.323 60.745,14.000 59.680,14.000 59.100 C 14.000 58.170,12.120 56.231,10.542 55.533 C 9.590 55.112,8.628 54.426,8.405 54.010 C 7.656 52.611,7.869 9.388,8.629 8.629 C 9.478 7.779,184.179 7.652,185.321 8.500 M335.587 8.709 C 336.649 9.569,336.123 10.217,333.149 11.718 C 331.882 12.357,331.152 13.092,330.499 14.387 C 329.384 16.599,329.014 16.971,326.821 18.099 C 325.462 18.798,324.925 19.380,324.423 20.698 C 323.609 22.834,322.834 23.609,320.698 24.423 C 319.380 24.925,318.798 25.462,318.099 26.821 C 316.971 29.014,316.599 29.384,314.387 30.499 C 313.092 31.152,312.357 31.882,311.718 33.149 C 310.745 35.077,309.680 36.400,309.100 36.400 C 308.178 36.400,306.234 38.273,305.549 39.821 C 304.504 42.185,306.824 42.064,258.692 42.260 C 211.131 42.454,215.067 42.689,213.483 39.551 C 212.874 38.342,212.106 37.552,211.005 37.000 C 208.360 35.673,208.425 35.973,208.425 25.200 C 208.425 14.427,208.360 14.727,211.005 13.400 C 212.122 12.840,212.871 12.061,213.503 10.800 C 214.000 9.810,214.709 8.775,215.079 8.500 C 216.313 7.584,334.452 7.790,335.587 8.709 M391.669 8.662 C 392.651 9.551,392.807 184.029,391.827 185.322 C 391.526 185.719,390.496 186.439,389.540 186.922 C 388.339 187.528,387.552 188.295,387.000 189.400 C 385.860 191.680,386.357 191.588,375.200 191.588 C 364.043 191.588,364.540 191.680,363.400 189.400 C 362.838 188.276,362.065 187.531,360.800 186.897 C 359.810 186.400,358.775 185.691,358.500 185.321 C 358.105 184.788,358.000 170.175,357.999 115.424 C 357.997 47.472,357.983 46.176,357.216 44.919 C 355.655 42.360,356.019 42.401,334.920 42.391 C 312.035 42.380,310.542 42.067,317.251 38.682 C 318.498 38.053,319.249 37.306,319.869 36.079 C 321.064 33.710,321.528 33.222,323.236 32.539 C 324.340 32.097,324.957 31.469,325.659 30.073 C 326.996 27.412,327.409 26.987,329.796 25.820 C 331.472 25.000,332.049 24.460,332.526 23.267 C 333.223 21.527,333.703 21.068,336.079 19.869 C 337.328 19.238,338.046 18.506,338.697 17.200 C 339.649 15.287,340.701 14.229,342.764 13.108 C 343.572 12.669,344.329 11.758,344.832 10.620 C 345.269 9.633,345.935 8.645,346.313 8.425 C 347.639 7.652,390.802 7.877,391.669 8.662 M335.152 16.258 C 334.803 16.678,334.562 16.700,334.142 16.352 C 333.722 16.003,333.700 15.762,334.048 15.342 C 334.397 14.922,334.638 14.900,335.058 15.248 C 335.478 15.597,335.500 15.838,335.152 16.258 M328.752 22.658 C 328.403 23.078,328.162 23.100,327.742 22.752 C 327.322 22.403,327.300 22.162,327.648 21.742 C 327.997 21.322,328.238 21.300,328.658 21.648 C 329.078 21.997,329.100 22.238,328.752 22.658 M322.752 28.658 C 322.403 29.078,322.162 29.100,321.742 28.752 C 321.322 28.403,321.300 28.162,321.648 27.742 C 321.997 27.322,322.238 27.300,322.658 27.648 C 323.078 27.997,323.100 28.238,322.752 28.658 M316.352 35.058 C 316.003 35.478,315.762 35.500,315.342 35.152 C 314.922 34.803,314.900 34.562,315.248 34.142 C 315.597 33.722,315.838 33.700,316.258 34.048 C 316.678 34.397,316.700 34.638,316.352 35.058 M11.696 67.207 C 12.347 68.499,13.081 69.243,14.321 69.869 C 16.697 71.068,17.177 71.527,17.874 73.267 C 18.352 74.463,18.928 75.000,20.622 75.829 C 23.112 77.047,23.573 77.522,24.435 79.754 C 24.920 81.012,25.483 81.613,26.821 82.301 C 29.014 83.429,29.384 83.801,30.499 86.013 C 31.163 87.330,31.873 88.036,33.200 88.697 C 35.113 89.649,36.171 90.701,37.292 92.764 C 37.728 93.565,38.640 94.328,39.750 94.819 C 42.197 95.902,42.063 93.404,42.260 141.708 C 42.454 189.269,42.689 185.333,39.551 186.917 C 38.338 187.528,37.554 188.292,37.000 189.400 C 35.860 191.680,36.357 191.588,25.200 191.588 C 14.043 191.588,14.540 191.680,13.400 189.400 C 12.838 188.276,12.065 187.531,10.800 186.897 C 9.810 186.400,8.775 185.691,8.500 185.321 C 7.636 184.157,7.783 66.088,8.650 64.850 C 9.454 63.703,10.233 64.306,11.696 67.207 M16.352 66.258 C 16.003 66.678,15.762 66.700,15.342 66.352 C 14.922 66.003,14.900 65.762,15.248 65.342 C 15.597 64.922,15.838 64.900,16.258 65.248 C 16.678 65.597,16.700 65.838,16.352 66.258 M22.752 72.658 C 22.403 73.078,22.162 73.100,21.742 72.752 C 21.322 72.403,21.300 72.162,21.648 71.742 C 21.997 71.322,22.238 71.300,22.658 71.648 C 23.078 71.997,23.100 72.238,22.752 72.658 M28.752 78.658 C 28.403 79.078,28.162 79.100,27.742 78.752 C 27.322 78.403,27.300 78.162,27.648 77.742 C 27.997 77.322,28.238 77.300,28.658 77.648 C 29.078 77.997,29.100 78.238,28.752 78.658 M35.152 85.058 C 34.803 85.478,34.562 85.500,34.142 85.152 C 33.722 84.803,33.700 84.562,34.048 84.142 C 34.397 83.722,34.638 83.700,35.058 84.048 C 35.478 84.397,35.500 84.638,35.152 85.058 M89.415 89.305 L 88.111 90.609 88.034 140.845 L 87.958 191.080 89.393 192.340 L 90.828 193.600 97.264 193.600 C 103.357 193.600,103.825 193.544,106.050 192.545 L 108.400 191.491 108.400 150.425 C 108.400 119.019,108.513 109.247,108.880 108.880 C 109.247 108.513,119.019 108.400,150.425 108.400 L 191.491 108.400 192.545 106.050 C 193.544 103.825,193.600 103.357,193.600 97.264 L 193.600 90.828 192.359 89.414 L 191.117 88.000 140.919 88.000 L 90.720 88.000 89.415 89.305 M201.781 89.339 L 200.400 90.720 200.400 97.288 C 200.400 103.661,200.433 103.921,201.500 106.028 L 202.600 108.200 247.000 108.400 L 291.400 108.600 291.502 149.918 L 291.604 191.236 294.102 192.418 C 296.549 193.575,296.732 193.599,303.086 193.600 L 309.572 193.600 310.986 192.359 L 312.400 191.117 312.400 140.919 L 312.400 90.720 311.093 89.413 L 309.786 88.106 256.474 88.032 L 203.161 87.959 201.781 89.339 M191.514 96.800 C 191.577 100.430,191.529 103.805,191.407 104.300 L 191.185 105.200 149.792 105.200 L 108.400 105.200 106.800 106.800 L 105.200 108.400 105.200 149.792 L 105.200 191.185 104.300 191.407 C 103.805 191.529,100.430 191.577,96.800 191.514 L 90.200 191.400 90.098 141.243 C 90.024 104.425,90.117 90.941,90.449 90.541 C 90.826 90.086,99.161 90.014,141.150 90.098 L 191.400 90.200 191.514 96.800 M309.953 90.543 C 310.283 90.940,310.376 104.509,310.302 141.243 L 310.200 191.400 303.600 191.514 C 299.970 191.577,296.595 191.529,296.100 191.407 L 295.200 191.185 295.200 149.954 C 295.200 108.843,295.198 108.720,294.368 107.556 C 292.590 105.058,295.432 105.200,247.364 105.200 C 206.047 105.200,203.457 105.159,202.957 104.500 C 202.238 103.553,202.170 91.190,202.880 90.480 C 203.633 89.727,309.327 89.789,309.953 90.543 M119.730 110.984 C 118.265 111.621,117.321 112.894,116.954 114.729 C 116.661 116.196,116.465 116.361,114.033 117.195 C 110.313 118.469,110.615 115.197,110.494 155.577 L 110.387 191.096 113.008 193.548 L 115.629 196.000 143.766 196.000 L 171.903 196.000 174.252 194.925 C 176.196 194.034,177.392 193.807,181.200 193.602 C 190.100 193.122,193.120 190.102,193.601 181.200 C 193.807 177.393,194.035 176.195,194.925 174.252 L 196.000 171.903 196.000 143.766 L 196.000 115.629 193.554 113.015 L 191.108 110.400 156.054 110.416 C 127.145 110.429,120.777 110.528,119.730 110.984 M200.569 112.957 L 198.000 115.526 198.000 143.715 L 198.000 171.903 199.075 174.252 C 199.966 176.196,200.193 177.392,200.398 181.200 C 200.738 187.513,202.171 190.031,206.800 192.457 C 208.565 193.382,208.869 193.404,222.400 193.600 L 236.200 193.800 238.851 194.908 L 241.502 196.016 260.051 195.881 L 278.600 195.746 282.610 194.327 C 284.815 193.547,287.383 192.519,288.316 192.043 L 290.013 191.177 289.906 155.618 C 289.785 115.098,290.103 118.465,286.271 117.171 C 283.984 116.398,284.002 116.416,283.229 114.129 C 281.930 110.282,285.724 110.615,241.740 110.494 L 203.138 110.388 200.569 112.957 M191.775 115.018 C 192.810 116.598,192.254 185.375,191.200 186.068 C 191.090 186.141,190.280 186.560,189.401 187.001 C 188.336 187.534,187.534 188.336,187.001 189.401 C 186.560 190.280,186.141 191.090,186.068 191.200 C 185.375 192.254,116.598 192.810,115.018 191.775 L 114.000 191.108 114.000 156.616 C 114.000 117.665,113.643 121.703,117.251 119.882 C 118.507 119.249,119.249 118.507,119.882 117.251 C 121.703 113.643,117.665 114.000,156.616 114.000 L 191.108 114.000 191.775 115.018 M278.956 114.751 C 279.329 115.164,280.032 116.289,280.518 117.251 C 281.151 118.507,281.893 119.249,283.149 119.882 C 286.757 121.703,286.400 117.665,286.400 156.619 C 286.400 186.901,286.327 191.143,285.800 191.344 C 282.837 192.482,266.880 192.565,222.307 191.677 L 208.414 191.400 207.507 189.600 C 206.871 188.338,206.122 187.561,205.000 187.000 C 202.011 185.505,202.043 185.913,201.767 146.048 L 201.558 115.896 202.449 114.948 L 203.339 114.000 240.808 114.000 C 276.952 114.000,278.300 114.027,278.956 114.751 M112.957 200.569 L 110.388 203.138 110.494 241.740 C 110.615 285.724,110.282 281.930,114.129 283.229 C 116.416 284.002,116.398 283.984,117.171 286.271 C 118.470 290.118,114.676 289.785,158.660 289.906 L 197.262 290.012 199.831 287.443 L 202.400 284.874 202.400 253.768 L 202.400 222.663 201.332 220.031 C 200.493 217.965,200.212 216.456,200.021 213.000 C 199.742 207.942,199.138 206.424,196.333 203.743 C 193.211 200.759,192.722 200.624,184.200 200.400 C 176.957 200.209,176.490 200.148,174.252 199.100 L 171.903 198.000 143.715 198.000 L 115.526 198.000 112.957 200.569 M238.600 199.136 C 236.250 200.168,235.976 200.195,225.400 200.395 C 213.400 200.623,213.314 200.641,210.277 203.544 C 207.861 205.853,207.097 207.929,206.796 213.000 C 206.594 216.422,206.299 217.985,205.468 220.031 L 204.400 222.663 204.400 253.717 L 204.400 284.771 206.852 287.392 L 209.304 290.013 244.823 289.906 C 285.296 289.785,281.935 290.103,283.229 286.271 C 284.002 283.984,283.984 284.002,286.271 283.229 C 290.124 281.928,289.800 285.745,289.800 241.714 L 289.800 203.086 288.718 202.279 C 288.124 201.835,285.604 200.745,283.118 199.856 L 278.600 198.241 259.800 198.162 L 241.000 198.083 238.600 199.136 M294.807 201.231 C 291.244 202.847,291.600 197.719,291.600 247.462 L 291.600 291.600 253.100 291.601 C 205.611 291.601,210.402 290.363,210.401 302.638 C 210.400 313.513,204.345 312.380,262.540 312.391 L 309.680 312.400 310.984 311.096 L 312.288 309.792 312.365 260.256 C 312.452 204.515,312.429 203.717,310.700 201.747 L 309.517 200.400 303.059 200.409 C 297.431 200.416,296.369 200.522,294.807 201.231 M183.746 202.221 C 191.936 202.453,191.669 202.373,193.000 205.013 C 193.576 206.156,194.359 206.887,195.800 207.625 L 197.800 208.650 198.112 213.225 C 198.284 215.741,198.518 232.808,198.633 251.152 L 198.842 284.503 197.951 285.452 L 197.061 286.400 159.592 286.400 C 117.273 286.400,121.706 286.763,119.882 283.149 C 119.249 281.893,118.507 281.151,117.251 280.518 C 113.637 278.694,114.000 283.119,114.000 240.864 L 114.000 203.452 114.889 202.505 L 115.778 201.559 145.989 201.783 C 162.605 201.906,179.596 202.103,183.746 202.221 M281.315 202.009 C 283.248 202.231,285.183 202.633,285.615 202.902 C 286.386 203.384,286.400 204.065,286.400 240.834 C 286.400 283.123,286.763 278.694,283.149 280.518 C 281.893 281.151,281.151 281.893,280.518 283.149 C 278.697 286.757,282.738 286.400,243.761 286.400 L 209.245 286.400 208.623 285.511 C 207.963 284.569,207.760 232.753,208.350 215.825 L 208.600 208.651 210.600 207.625 C 212.046 206.884,212.821 206.159,213.400 205.005 C 214.725 202.364,214.422 202.431,225.400 202.369 C 230.900 202.338,236.480 202.179,237.800 202.015 C 241.487 201.558,277.331 201.553,281.315 202.009 M309.920 202.880 C 310.617 203.577,310.617 309.223,309.920 309.920 C 309.178 310.662,215.679 310.586,214.700 309.843 C 213.519 308.947,213.662 297.412,214.870 296.126 L 215.739 295.200 253.570 295.199 C 290.385 295.197,291.434 295.176,292.681 294.416 C 295.362 292.781,295.200 295.807,295.200 247.364 C 295.200 206.047,295.241 203.457,295.900 202.957 C 296.847 202.238,309.210 202.170,309.920 202.880 M13.000 208.000 C 11.177 208.860,9.854 209.951,7.500 212.537 L 4.400 215.941 4.401 303.871 C 4.401 402.229,4.142 393.772,7.200 395.299 C 9.109 396.253,53.507 396.384,55.761 395.442 C 57.365 394.772,58.400 393.406,58.400 391.960 C 58.400 389.357,59.692 389.679,60.800 392.559 C 61.130 393.416,61.908 394.496,62.529 394.959 L 63.659 395.800 124.060 395.904 L 184.462 396.008 187.849 392.868 C 190.425 390.480,191.518 389.131,192.417 387.229 L 193.600 384.728 193.600 375.200 L 193.600 365.672 192.447 363.233 C 191.812 361.892,191.047 360.500,190.747 360.140 C 190.446 359.779,189.930 358.764,189.600 357.884 C 188.260 354.307,192.274 354.614,145.316 354.494 L 103.890 354.389 101.445 355.363 C 100.100 355.898,97.830 356.544,96.400 356.797 C 93.376 357.333,92.120 358.032,91.567 359.486 C 91.076 360.779,90.502 360.324,89.615 357.936 C 88.319 354.451,89.400 354.615,66.811 354.489 C 50.930 354.401,46.791 354.272,46.443 353.852 C 46.132 353.477,45.977 333.236,45.903 283.492 L 45.800 213.659 44.959 212.529 C 44.496 211.908,43.389 211.129,42.499 210.798 C 41.608 210.467,40.547 209.908,40.140 209.555 C 37.385 207.166,35.345 206.798,25.052 206.834 L 15.400 206.869 13.000 208.000 M89.754 207.686 C 89.119 208.174,88.468 208.759,88.306 208.986 C 88.144 209.214,88.009 231.963,88.006 259.540 L 88.000 309.680 89.360 311.040 C 90.678 312.358,90.819 312.400,93.885 312.400 C 98.086 312.400,99.201 311.414,99.659 307.295 C 100.048 303.803,100.081 209.531,99.694 208.986 C 98.550 207.375,97.052 206.800,94.000 206.800 C 91.422 206.800,90.716 206.947,89.754 207.686 M363.151 207.934 C 361.914 208.520,360.583 209.270,360.193 209.600 C 359.804 209.930,358.764 210.470,357.884 210.800 C 354.307 212.140,354.614 208.126,354.494 255.084 L 354.389 296.510 355.363 298.955 C 355.898 300.300,356.546 302.565,356.802 303.990 C 357.369 307.144,357.704 307.810,359.059 308.480 C 360.419 309.152,360.390 309.676,358.956 310.314 C 354.100 312.473,354.401 310.903,354.401 334.051 C 354.400 349.837,354.299 353.586,353.863 353.948 C 353.474 354.271,334.090 354.422,283.492 354.497 L 213.659 354.600 212.529 355.441 C 211.908 355.904,211.129 357.011,210.798 357.901 C 210.467 358.792,209.908 359.853,209.555 360.260 C 207.186 362.992,206.800 365.082,206.800 375.193 L 206.800 384.689 207.977 387.245 C 208.907 389.264,209.865 390.450,212.547 392.900 L 215.940 396.000 303.870 395.999 C 386.782 395.999,391.880 395.959,393.200 395.299 C 396.098 393.852,396.021 394.613,395.904 368.329 C 395.785 341.548,396.019 343.236,392.247 341.963 C 390.039 341.217,389.857 340.792,391.444 340.086 C 396.527 337.826,395.999 345.275,395.999 275.870 L 396.000 215.940 392.900 212.547 C 390.450 209.865,389.264 208.907,387.245 207.977 L 384.689 206.800 375.045 206.834 C 365.461 206.868,365.386 206.875,363.151 207.934 M35.600 208.918 C 35.930 209.189,36.560 210.128,37.000 211.005 C 37.551 212.103,38.342 212.874,39.540 213.478 C 40.496 213.961,41.526 214.681,41.827 215.078 C 42.285 215.682,42.377 227.065,42.389 285.000 C 42.403 352.916,42.417 354.224,43.184 355.481 C 44.746 358.042,44.372 358.000,65.536 358.000 C 88.444 358.000,89.906 358.309,83.149 361.718 C 81.882 362.357,81.152 363.092,80.499 364.387 C 79.384 366.599,79.014 366.971,76.821 368.099 C 75.462 368.798,74.925 369.380,74.423 370.698 C 73.609 372.834,72.834 373.609,70.698 374.423 C 69.380 374.925,68.798 375.462,68.099 376.821 C 66.971 379.014,66.599 379.384,64.387 380.499 C 63.092 381.152,62.357 381.882,61.718 383.149 C 60.731 385.105,59.678 386.400,59.076 386.400 C 58.231 386.400,56.094 388.411,55.595 389.676 C 54.466 392.538,55.858 392.381,31.431 392.391 C 11.543 392.399,9.394 392.337,8.731 391.738 C 7.791 390.887,7.563 216.342,8.500 215.079 C 8.775 214.709,9.810 214.000,10.800 213.503 C 12.061 212.871,12.840 212.122,13.400 211.005 C 13.840 210.128,14.470 209.189,14.800 208.918 C 15.656 208.216,34.744 208.216,35.600 208.918 M97.520 208.880 C 98.217 209.577,98.217 309.223,97.520 309.920 C 96.879 310.561,91.121 310.561,90.480 309.920 C 89.783 309.223,89.783 209.577,90.480 208.880 C 90.769 208.591,92.169 208.400,94.000 208.400 C 95.831 208.400,97.231 208.591,97.520 208.880 M385.600 208.918 C 385.930 209.189,386.560 210.128,387.000 211.005 C 387.551 212.103,388.342 212.874,389.540 213.478 C 390.496 213.961,391.526 214.681,391.827 215.078 C 392.785 216.342,392.635 334.272,391.673 335.522 C 390.817 336.634,390.190 336.137,388.682 333.149 C 388.043 331.882,387.308 331.152,386.013 330.499 C 383.801 329.384,383.429 329.014,382.301 326.821 C 381.613 325.483,381.012 324.920,379.754 324.435 C 377.522 323.573,377.047 323.112,375.829 320.622 C 375.000 318.928,374.463 318.352,373.267 317.874 C 371.527 317.177,371.068 316.697,369.869 314.321 C 369.249 313.094,368.498 312.347,367.251 311.718 C 365.323 310.745,364.000 309.680,364.000 309.100 C 364.000 308.178,362.127 306.234,360.580 305.550 C 358.099 304.452,358.227 306.799,358.084 259.707 C 357.940 211.920,357.761 215.104,360.668 213.600 C 362.041 212.889,362.831 212.139,363.400 211.005 C 363.840 210.128,364.470 209.189,364.800 208.918 C 365.656 208.216,384.744 208.216,385.600 208.918 M108.917 292.100 C 106.396 295.411,105.928 307.439,108.188 310.853 L 109.211 312.400 150.184 312.400 L 191.157 312.400 193.579 310.981 L 196.000 309.562 195.999 302.681 C 195.999 294.833,195.645 293.522,193.200 292.301 C 191.379 291.391,109.605 291.196,108.917 292.100 M191.754 296.186 C 192.648 297.550,192.710 308.947,191.829 309.829 C 191.050 310.607,109.657 310.697,108.880 309.920 C 108.199 309.239,108.214 297.088,108.896 295.995 C 109.386 295.210,109.919 295.200,150.250 295.200 L 191.108 295.200 191.754 296.186 M361.696 317.207 C 362.347 318.499,363.081 319.243,364.321 319.869 C 366.697 321.068,367.177 321.527,367.874 323.267 C 368.352 324.463,368.928 325.000,370.622 325.829 C 373.112 327.047,373.573 327.522,374.435 329.754 C 374.920 331.012,375.483 331.613,376.821 332.301 C 379.014 333.429,379.384 333.801,380.499 336.013 C 381.163 337.330,381.873 338.036,383.200 338.697 C 385.112 339.649,386.171 340.701,387.290 342.760 C 387.702 343.518,388.635 344.324,389.603 344.757 C 392.546 346.074,392.373 344.572,392.387 368.969 C 392.399 388.860,392.337 391.006,391.738 391.669 C 390.849 392.651,216.371 392.807,215.078 391.827 C 214.681 391.526,213.961 390.496,213.478 389.540 C 212.874 388.342,212.103 387.551,211.005 387.000 C 208.360 385.673,208.425 385.973,208.425 375.200 C 208.425 364.427,208.360 364.727,211.005 363.400 C 212.122 362.840,212.871 362.061,213.503 360.800 C 214.000 359.810,214.709 358.775,215.079 358.500 C 215.612 358.105,230.207 358.000,284.896 358.000 C 361.277 358.000,355.559 358.199,357.216 355.481 C 357.962 354.258,357.997 353.337,357.999 334.989 C 358.000 312.051,358.320 310.512,361.696 317.207 M366.352 316.258 C 366.003 316.678,365.762 316.700,365.342 316.352 C 364.922 316.003,364.900 315.762,365.248 315.342 C 365.597 314.922,365.838 314.900,366.258 315.248 C 366.678 315.597,366.700 315.838,366.352 316.258 M372.752 322.658 C 372.403 323.078,372.162 323.100,371.742 322.752 C 371.322 322.403,371.300 322.162,371.648 321.742 C 371.997 321.322,372.238 321.300,372.658 321.648 C 373.078 321.997,373.100 322.238,372.752 322.658 M378.752 328.658 C 378.403 329.078,378.162 329.100,377.742 328.752 C 377.322 328.403,377.300 328.162,377.648 327.742 C 377.997 327.322,378.238 327.300,378.658 327.648 C 379.078 327.997,379.100 328.238,378.752 328.658 M385.152 335.058 C 384.803 335.478,384.562 335.500,384.142 335.152 C 383.722 334.803,383.700 334.562,384.048 334.142 C 384.397 333.722,384.638 333.700,385.058 334.048 C 385.478 334.397,385.500 334.638,385.152 335.058 M185.321 358.500 C 185.691 358.775,186.400 359.810,186.897 360.800 C 187.531 362.065,188.276 362.838,189.400 363.400 C 191.680 364.540,191.588 364.043,191.588 375.200 C 191.588 386.357,191.680 385.860,189.400 387.000 C 188.295 387.552,187.528 388.339,186.922 389.540 C 186.439 390.496,185.719 391.526,185.322 391.827 C 184.058 392.785,66.128 392.635,64.878 391.673 C 63.766 390.817,64.263 390.190,67.251 388.682 C 68.498 388.053,69.249 387.306,69.869 386.079 C 71.068 383.703,71.527 383.223,73.267 382.526 C 74.460 382.049,75.000 381.472,75.820 379.796 C 76.987 377.409,77.412 376.996,80.073 375.659 C 81.469 374.957,82.097 374.340,82.539 373.236 C 83.222 371.528,83.710 371.064,86.079 369.869 C 87.328 369.238,88.046 368.506,88.697 367.200 C 89.649 365.287,90.701 364.229,92.764 363.108 C 93.574 362.668,94.329 361.758,94.836 360.611 C 95.353 359.443,95.946 358.736,96.517 358.606 C 99.624 357.898,184.374 357.797,185.321 358.500 M85.152 366.258 C 84.803 366.678,84.562 366.700,84.142 366.352 C 83.722 366.003,83.700 365.762,84.048 365.342 C 84.397 364.922,84.638 364.900,85.058 365.248 C 85.478 365.597,85.500 365.838,85.152 366.258 M78.752 372.658 C 78.403 373.078,78.162 373.100,77.742 372.752 C 77.322 372.403,77.300 372.162,77.648 371.742 C 77.997 371.322,78.238 371.300,78.658 371.648 C 79.078 371.997,79.100 372.238,78.752 372.658 M72.752 378.658 C 72.403 379.078,72.162 379.100,71.742 378.752 C 71.322 378.403,71.300 378.162,71.648 377.742 C 71.997 377.322,72.238 377.300,72.658 377.648 C 73.078 377.997,73.100 378.238,72.752 378.658 M66.352 385.058 C 66.003 385.478,65.762 385.500,65.342 385.152 C 64.922 384.803,64.900 384.562,65.248 384.142 C 65.597 383.722,65.838 383.700,66.258 384.048 C 66.678 384.397,66.700 384.638,66.352 385.058 " stroke="none" fill="#d8a05c" fill-rule="evenodd"></path><path id="path3" d="M7.200 5.101 C 4.332 6.533,4.401 5.882,4.401 31.513 C 4.400 58.009,4.459 58.400,8.440 58.400 C 11.043 58.400,10.721 59.692,7.841 60.800 C 6.984 61.130,5.904 61.908,5.441 62.529 L 4.600 63.659 4.496 124.054 L 4.392 184.450 7.484 187.829 C 9.900 190.468,11.135 191.469,13.133 192.404 L 15.690 193.600 25.209 193.600 L 34.728 193.600 37.167 192.447 C 38.508 191.812,39.900 191.047,40.260 190.747 C 40.621 190.446,41.636 189.930,42.516 189.600 C 46.093 188.260,45.786 192.274,45.906 145.316 L 46.011 103.890 45.037 101.445 C 44.502 100.100,43.856 97.830,43.603 96.400 C 43.067 93.376,42.368 92.120,40.914 91.567 C 39.621 91.076,40.076 90.502,42.464 89.615 C 45.949 88.319,45.785 89.400,45.911 66.811 C 45.999 50.930,46.128 46.791,46.548 46.443 C 46.923 46.132,67.164 45.977,116.908 45.903 L 186.741 45.800 187.871 44.959 C 188.492 44.496,189.270 43.397,189.600 42.516 C 189.930 41.636,190.446 40.621,190.747 40.260 C 191.047 39.900,191.812 38.508,192.447 37.167 L 193.600 34.728 193.600 25.209 L 193.600 15.690 192.404 13.133 C 191.469 11.136,190.468 9.900,187.833 7.488 L 184.459 4.400 96.529 4.401 C 13.618 4.401,8.520 4.441,7.200 5.101 M212.344 7.718 C 206.961 12.828,206.800 13.337,206.800 25.200 C 206.800 35.318,207.185 37.408,209.555 40.140 C 209.908 40.547,210.467 41.608,210.798 42.499 C 212.135 46.096,208.109 45.786,255.084 45.906 L 296.510 46.011 298.955 45.037 C 300.300 44.502,302.565 43.854,303.990 43.598 C 307.163 43.027,307.815 42.695,308.480 41.308 C 309.152 39.906,309.676 39.935,310.314 41.411 C 312.425 46.294,310.895 45.999,334.051 45.999 C 349.837 46.000,353.586 46.101,353.948 46.537 C 354.271 46.926,354.422 66.310,354.497 116.908 L 354.600 186.741 355.441 187.871 C 355.904 188.492,357.003 189.270,357.884 189.600 C 358.764 189.930,359.779 190.446,360.140 190.747 C 360.500 191.047,361.892 191.812,363.233 192.447 L 365.672 193.600 375.200 193.600 L 384.728 193.600 387.229 192.417 C 389.130 191.518,390.480 190.425,392.865 187.853 L 396.000 184.470 395.999 96.535 C 395.999 13.618,395.959 8.520,395.299 7.200 C 393.852 4.302,394.613 4.379,368.329 4.496 C 341.490 4.615,343.240 4.367,341.937 8.233 C 341.185 10.463,340.820 10.606,340.086 8.956 C 337.826 3.872,345.288 4.398,275.800 4.419 L 215.800 4.437 212.344 7.718 M185.321 8.500 C 185.691 8.775,186.400 9.810,186.897 10.800 C 187.531 12.065,188.276 12.838,189.400 13.400 C 191.680 14.540,191.588 14.043,191.588 25.200 C 191.588 36.357,191.680 35.860,189.400 37.000 C 188.295 37.552,187.528 38.339,186.922 39.540 C 186.439 40.496,185.719 41.526,185.322 41.827 C 184.718 42.285,173.349 42.377,115.480 42.387 C 39.129 42.401,44.841 42.201,43.184 44.919 C 42.438 46.142,42.403 47.071,42.393 65.400 C 42.380 88.374,42.069 89.862,38.682 83.149 C 38.043 81.882,37.308 81.152,36.013 80.499 C 33.801 79.384,33.429 79.014,32.301 76.821 C 31.613 75.483,31.012 74.920,29.754 74.435 C 27.522 73.573,27.047 73.112,25.829 70.622 C 25.000 68.928,24.463 68.352,23.267 67.874 C 21.527 67.177,21.068 66.697,19.869 64.321 C 19.249 63.094,18.498 62.347,17.251 61.718 C 15.323 60.745,14.000 59.680,14.000 59.100 C 14.000 58.170,12.120 56.231,10.542 55.533 C 9.590 55.112,8.628 54.426,8.405 54.010 C 7.656 52.611,7.869 9.388,8.629 8.629 C 9.478 7.779,184.179 7.652,185.321 8.500 M335.587 8.709 C 336.649 9.569,336.123 10.217,333.149 11.718 C 331.882 12.357,331.152 13.092,330.499 14.387 C 329.384 16.599,329.014 16.971,326.821 18.099 C 325.462 18.798,324.925 19.380,324.423 20.698 C 323.609 22.834,322.834 23.609,320.698 24.423 C 319.380 24.925,318.798 25.462,318.099 26.821 C 316.971 29.014,316.599 29.384,314.387 30.499 C 313.092 31.152,312.357 31.882,311.718 33.149 C 310.745 35.077,309.680 36.400,309.100 36.400 C 308.178 36.400,306.234 38.273,305.549 39.821 C 304.504 42.185,306.824 42.064,258.692 42.260 C 211.131 42.454,215.067 42.689,213.483 39.551 C 212.874 38.342,212.106 37.552,211.005 37.000 C 208.360 35.673,208.425 35.973,208.425 25.200 C 208.425 14.427,208.360 14.727,211.005 13.400 C 212.122 12.840,212.871 12.061,213.503 10.800 C 214.000 9.810,214.709 8.775,215.079 8.500 C 216.313 7.584,334.452 7.790,335.587 8.709 M391.669 8.662 C 392.651 9.551,392.807 184.029,391.827 185.322 C 391.526 185.719,390.496 186.439,389.540 186.922 C 388.339 187.528,387.552 188.295,387.000 189.400 C 385.860 191.680,386.357 191.588,375.200 191.588 C 364.043 191.588,364.540 191.680,363.400 189.400 C 362.838 188.276,362.065 187.531,360.800 186.897 C 359.810 186.400,358.775 185.691,358.500 185.321 C 358.105 184.788,358.000 170.175,357.999 115.424 C 357.997 47.472,357.983 46.176,357.216 44.919 C 355.655 42.360,356.019 42.401,334.920 42.391 C 312.035 42.380,310.542 42.067,317.251 38.682 C 318.498 38.053,319.249 37.306,319.869 36.079 C 321.064 33.710,321.528 33.222,323.236 32.539 C 324.340 32.097,324.957 31.469,325.659 30.073 C 326.996 27.412,327.409 26.987,329.796 25.820 C 331.472 25.000,332.049 24.460,332.526 23.267 C 333.223 21.527,333.703 21.068,336.079 19.869 C 337.328 19.238,338.046 18.506,338.697 17.200 C 339.649 15.287,340.701 14.229,342.764 13.108 C 343.572 12.669,344.329 11.758,344.832 10.620 C 345.269 9.633,345.935 8.645,346.313 8.425 C 347.639 7.652,390.802 7.877,391.669 8.662 M335.152 16.258 C 334.803 16.678,334.562 16.700,334.142 16.352 C 333.722 16.003,333.700 15.762,334.048 15.342 C 334.397 14.922,334.638 14.900,335.058 15.248 C 335.478 15.597,335.500 15.838,335.152 16.258 M328.752 22.658 C 328.403 23.078,328.162 23.100,327.742 22.752 C 327.322 22.403,327.300 22.162,327.648 21.742 C 327.997 21.322,328.238 21.300,328.658 21.648 C 329.078 21.997,329.100 22.238,328.752 22.658 M322.752 28.658 C 322.403 29.078,322.162 29.100,321.742 28.752 C 321.322 28.403,321.300 28.162,321.648 27.742 C 321.997 27.322,322.238 27.300,322.658 27.648 C 323.078 27.997,323.100 28.238,322.752 28.658 M316.352 35.058 C 316.003 35.478,315.762 35.500,315.342 35.152 C 314.922 34.803,314.900 34.562,315.248 34.142 C 315.597 33.722,315.838 33.700,316.258 34.048 C 316.678 34.397,316.700 34.638,316.352 35.058 M11.696 67.207 C 12.347 68.499,13.081 69.243,14.321 69.869 C 16.697 71.068,17.177 71.527,17.874 73.267 C 18.352 74.463,18.928 75.000,20.622 75.829 C 23.112 77.047,23.573 77.522,24.435 79.754 C 24.920 81.012,25.483 81.613,26.821 82.301 C 29.014 83.429,29.384 83.801,30.499 86.013 C 31.163 87.330,31.873 88.036,33.200 88.697 C 35.113 89.649,36.171 90.701,37.292 92.764 C 37.728 93.565,38.640 94.328,39.750 94.819 C 42.197 95.902,42.063 93.404,42.260 141.708 C 42.454 189.269,42.689 185.333,39.551 186.917 C 38.338 187.528,37.554 188.292,37.000 189.400 C 35.860 191.680,36.357 191.588,25.200 191.588 C 14.043 191.588,14.540 191.680,13.400 189.400 C 12.838 188.276,12.065 187.531,10.800 186.897 C 9.810 186.400,8.775 185.691,8.500 185.321 C 7.636 184.157,7.783 66.088,8.650 64.850 C 9.454 63.703,10.233 64.306,11.696 67.207 M16.352 66.258 C 16.003 66.678,15.762 66.700,15.342 66.352 C 14.922 66.003,14.900 65.762,15.248 65.342 C 15.597 64.922,15.838 64.900,16.258 65.248 C 16.678 65.597,16.700 65.838,16.352 66.258 M22.752 72.658 C 22.403 73.078,22.162 73.100,21.742 72.752 C 21.322 72.403,21.300 72.162,21.648 71.742 C 21.997 71.322,22.238 71.300,22.658 71.648 C 23.078 71.997,23.100 72.238,22.752 72.658 M28.752 78.658 C 28.403 79.078,28.162 79.100,27.742 78.752 C 27.322 78.403,27.300 78.162,27.648 77.742 C 27.997 77.322,28.238 77.300,28.658 77.648 C 29.078 77.997,29.100 78.238,28.752 78.658 M35.152 85.058 C 34.803 85.478,34.562 85.500,34.142 85.152 C 33.722 84.803,33.700 84.562,34.048 84.142 C 34.397 83.722,34.638 83.700,35.058 84.048 C 35.478 84.397,35.500 84.638,35.152 85.058 M89.415 89.305 L 88.111 90.609 88.034 140.845 L 87.958 191.080 89.393 192.340 L 90.828 193.600 97.264 193.600 C 103.357 193.600,103.825 193.544,106.050 192.545 L 108.400 191.491 108.400 150.425 C 108.400 119.019,108.513 109.247,108.880 108.880 C 109.247 108.513,119.019 108.400,150.425 108.400 L 191.491 108.400 192.545 106.050 C 193.544 103.825,193.600 103.357,193.600 97.264 L 193.600 90.828 192.359 89.414 L 191.117 88.000 140.919 88.000 L 90.720 88.000 89.415 89.305 M201.781 89.339 L 200.400 90.720 200.400 97.288 C 200.400 103.661,200.433 103.921,201.500 106.028 L 202.600 108.200 247.000 108.400 L 291.400 108.600 291.502 149.918 L 291.604 191.236 294.102 192.418 C 296.549 193.575,296.732 193.599,303.086 193.600 L 309.572 193.600 310.986 192.359 L 312.400 191.117 312.400 140.919 L 312.400 90.720 311.093 89.413 L 309.786 88.106 256.474 88.032 L 203.161 87.959 201.781 89.339 M191.514 96.800 C 191.577 100.430,191.529 103.805,191.407 104.300 L 191.185 105.200 149.792 105.200 L 108.400 105.200 106.800 106.800 L 105.200 108.400 105.200 149.792 L 105.200 191.185 104.300 191.407 C 103.805 191.529,100.430 191.577,96.800 191.514 L 90.200 191.400 90.098 141.243 C 90.024 104.425,90.117 90.941,90.449 90.541 C 90.826 90.086,99.161 90.014,141.150 90.098 L 191.400 90.200 191.514 96.800 M309.953 90.543 C 310.283 90.940,310.376 104.509,310.302 141.243 L 310.200 191.400 303.600 191.514 C 299.970 191.577,296.595 191.529,296.100 191.407 L 295.200 191.185 295.200 149.954 C 295.200 108.843,295.198 108.720,294.368 107.556 C 292.590 105.058,295.432 105.200,247.364 105.200 C 206.047 105.200,203.457 105.159,202.957 104.500 C 202.238 103.553,202.170 91.190,202.880 90.480 C 203.633 89.727,309.327 89.789,309.953 90.543 M119.730 110.984 C 118.265 111.621,117.321 112.894,116.954 114.729 C 116.661 116.196,116.465 116.361,114.033 117.195 C 110.313 118.469,110.615 115.197,110.494 155.577 L 110.387 191.096 113.008 193.548 L 115.629 196.000 143.766 196.000 L 171.903 196.000 174.252 194.925 C 176.196 194.034,177.392 193.807,181.200 193.602 C 190.100 193.122,193.120 190.102,193.601 181.200 C 193.807 177.393,194.035 176.195,194.925 174.252 L 196.000 171.903 196.000 143.766 L 196.000 115.629 193.554 113.015 L 191.108 110.400 156.054 110.416 C 127.145 110.429,120.777 110.528,119.730 110.984 M200.569 112.957 L 198.000 115.526 198.000 143.715 L 198.000 171.903 199.075 174.252 C 199.966 176.196,200.193 177.392,200.398 181.200 C 200.738 187.513,202.171 190.031,206.800 192.457 C 208.565 193.382,208.869 193.404,222.400 193.600 L 236.200 193.800 238.851 194.908 L 241.502 196.016 260.051 195.881 L 278.600 195.746 282.610 194.327 C 284.815 193.547,287.383 192.519,288.316 192.043 L 290.013 191.177 289.906 155.618 C 289.785 115.098,290.103 118.465,286.271 117.171 C 283.984 116.398,284.002 116.416,283.229 114.129 C 281.930 110.282,285.724 110.615,241.740 110.494 L 203.138 110.388 200.569 112.957 M191.775 115.018 C 192.810 116.598,192.254 185.375,191.200 186.068 C 191.090 186.141,190.280 186.560,189.401 187.001 C 188.336 187.534,187.534 188.336,187.001 189.401 C 186.560 190.280,186.141 191.090,186.068 191.200 C 185.375 192.254,116.598 192.810,115.018 191.775 L 114.000 191.108 114.000 156.616 C 114.000 117.665,113.643 121.703,117.251 119.882 C 118.507 119.249,119.249 118.507,119.882 117.251 C 121.703 113.643,117.665 114.000,156.616 114.000 L 191.108 114.000 191.775 115.018 M278.956 114.751 C 279.329 115.164,280.032 116.289,280.518 117.251 C 281.151 118.507,281.893 119.249,283.149 119.882 C 286.757 121.703,286.400 117.665,286.400 156.619 C 286.400 186.901,286.327 191.143,285.800 191.344 C 282.837 192.482,266.880 192.565,222.307 191.677 L 208.414 191.400 207.507 189.600 C 206.871 188.338,206.122 187.561,205.000 187.000 C 202.011 185.505,202.043 185.913,201.767 146.048 L 201.558 115.896 202.449 114.948 L 203.339 114.000 240.808 114.000 C 276.952 114.000,278.300 114.027,278.956 114.751 M112.957 200.569 L 110.388 203.138 110.494 241.740 C 110.615 285.724,110.282 281.930,114.129 283.229 C 116.416 284.002,116.398 283.984,117.171 286.271 C 118.470 290.118,114.676 289.785,158.660 289.906 L 197.262 290.012 199.831 287.443 L 202.400 284.874 202.400 253.768 L 202.400 222.663 201.332 220.031 C 200.493 217.965,200.212 216.456,200.021 213.000 C 199.742 207.942,199.138 206.424,196.333 203.743 C 193.211 200.759,192.722 200.624,184.200 200.400 C 176.957 200.209,176.490 200.148,174.252 199.100 L 171.903 198.000 143.715 198.000 L 115.526 198.000 112.957 200.569 M238.600 199.136 C 236.250 200.168,235.976 200.195,225.400 200.395 C 213.400 200.623,213.314 200.641,210.277 203.544 C 207.861 205.853,207.097 207.929,206.796 213.000 C 206.594 216.422,206.299 217.985,205.468 220.031 L 204.400 222.663 204.400 253.717 L 204.400 284.771 206.852 287.392 L 209.304 290.013 244.823 289.906 C 285.296 289.785,281.935 290.103,283.229 286.271 C 284.002 283.984,283.984 284.002,286.271 283.229 C 290.124 281.928,289.800 285.745,289.800 241.714 L 289.800 203.086 288.718 202.279 C 288.124 201.835,285.604 200.745,283.118 199.856 L 278.600 198.241 259.800 198.162 L 241.000 198.083 238.600 199.136 M294.807 201.231 C 291.244 202.847,291.600 197.719,291.600 247.462 L 291.600 291.600 253.100 291.601 C 205.611 291.601,210.402 290.363,210.401 302.638 C 210.400 313.513,204.345 312.380,262.540 312.391 L 309.680 312.400 310.984 311.096 L 312.288 309.792 312.365 260.256 C 312.452 204.515,312.429 203.717,310.700 201.747 L 309.517 200.400 303.059 200.409 C 297.431 200.416,296.369 200.522,294.807 201.231 M183.746 202.221 C 191.936 202.453,191.669 202.373,193.000 205.013 C 193.576 206.156,194.359 206.887,195.800 207.625 L 197.800 208.650 198.112 213.225 C 198.284 215.741,198.518 232.808,198.633 251.152 L 198.842 284.503 197.951 285.452 L 197.061 286.400 159.592 286.400 C 117.273 286.400,121.706 286.763,119.882 283.149 C 119.249 281.893,118.507 281.151,117.251 280.518 C 113.637 278.694,114.000 283.119,114.000 240.864 L 114.000 203.452 114.889 202.505 L 115.778 201.559 145.989 201.783 C 162.605 201.906,179.596 202.103,183.746 202.221 M281.315 202.009 C 283.248 202.231,285.183 202.633,285.615 202.902 C 286.386 203.384,286.400 204.065,286.400 240.834 C 286.400 283.123,286.763 278.694,283.149 280.518 C 281.893 281.151,281.151 281.893,280.518 283.149 C 278.697 286.757,282.738 286.400,243.761 286.400 L 209.245 286.400 208.623 285.511 C 207.963 284.569,207.760 232.753,208.350 215.825 L 208.600 208.651 210.600 207.625 C 212.046 206.884,212.821 206.159,213.400 205.005 C 214.725 202.364,214.422 202.431,225.400 202.369 C 230.900 202.338,236.480 202.179,237.800 202.015 C 241.487 201.558,277.331 201.553,281.315 202.009 M309.920 202.880 C 310.617 203.577,310.617 309.223,309.920 309.920 C 309.178 310.662,215.679 310.586,214.700 309.843 C 213.519 308.947,213.662 297.412,214.870 296.126 L 215.739 295.200 253.570 295.199 C 290.385 295.197,291.434 295.176,292.681 294.416 C 295.362 292.781,295.200 295.807,295.200 247.364 C 295.200 206.047,295.241 203.457,295.900 202.957 C 296.847 202.238,309.210 202.170,309.920 202.880 M13.000 208.000 C 11.177 208.860,9.854 209.951,7.500 212.537 L 4.400 215.941 4.401 303.871 C 4.401 402.229,4.142 393.772,7.200 395.299 C 9.109 396.253,53.507 396.384,55.761 395.442 C 57.365 394.772,58.400 393.406,58.400 391.960 C 58.400 389.357,59.692 389.679,60.800 392.559 C 61.130 393.416,61.908 394.496,62.529 394.959 L 63.659 395.800 124.060 395.904 L 184.462 396.008 187.849 392.868 C 190.425 390.480,191.518 389.131,192.417 387.229 L 193.600 384.728 193.600 375.200 L 193.600 365.672 192.447 363.233 C 191.812 361.892,191.047 360.500,190.747 360.140 C 190.446 359.779,189.930 358.764,189.600 357.884 C 188.260 354.307,192.274 354.614,145.316 354.494 L 103.890 354.389 101.445 355.363 C 100.100 355.898,97.830 356.544,96.400 356.797 C 93.376 357.333,92.120 358.032,91.567 359.486 C 91.076 360.779,90.502 360.324,89.615 357.936 C 88.319 354.451,89.400 354.615,66.811 354.489 C 50.930 354.401,46.791 354.272,46.443 353.852 C 46.132 353.477,45.977 333.236,45.903 283.492 L 45.800 213.659 44.959 212.529 C 44.496 211.908,43.389 211.129,42.499 210.798 C 41.608 210.467,40.547 209.908,40.140 209.555 C 37.385 207.166,35.345 206.798,25.052 206.834 L 15.400 206.869 13.000 208.000 M89.754 207.686 C 89.119 208.174,88.468 208.759,88.306 208.986 C 88.144 209.214,88.009 231.963,88.006 259.540 L 88.000 309.680 89.360 311.040 C 90.678 312.358,90.819 312.400,93.885 312.400 C 98.086 312.400,99.201 311.414,99.659 307.295 C 100.048 303.803,100.081 209.531,99.694 208.986 C 98.550 207.375,97.052 206.800,94.000 206.800 C 91.422 206.800,90.716 206.947,89.754 207.686 M363.151 207.934 C 361.914 208.520,360.583 209.270,360.193 209.600 C 359.804 209.930,358.764 210.470,357.884 210.800 C 354.307 212.140,354.614 208.126,354.494 255.084 L 354.389 296.510 355.363 298.955 C 355.898 300.300,356.546 302.565,356.802 303.990 C 357.369 307.144,357.704 307.810,359.059 308.480 C 360.419 309.152,360.390 309.676,358.956 310.314 C 354.100 312.473,354.401 310.903,354.401 334.051 C 354.400 349.837,354.299 353.586,353.863 353.948 C 353.474 354.271,334.090 354.422,283.492 354.497 L 213.659 354.600 212.529 355.441 C 211.908 355.904,211.129 357.011,210.798 357.901 C 210.467 358.792,209.908 359.853,209.555 360.260 C 207.186 362.992,206.800 365.082,206.800 375.193 L 206.800 384.689 207.977 387.245 C 208.907 389.264,209.865 390.450,212.547 392.900 L 215.940 396.000 303.870 395.999 C 386.782 395.999,391.880 395.959,393.200 395.299 C 396.098 393.852,396.021 394.613,395.904 368.329 C 395.785 341.548,396.019 343.236,392.247 341.963 C 390.039 341.217,389.857 340.792,391.444 340.086 C 396.527 337.826,395.999 345.275,395.999 275.870 L 396.000 215.940 392.900 212.547 C 390.450 209.865,389.264 208.907,387.245 207.977 L 384.689 206.800 375.045 206.834 C 365.461 206.868,365.386 206.875,363.151 207.934 M35.600 208.918 C 35.930 209.189,36.560 210.128,37.000 211.005 C 37.551 212.103,38.342 212.874,39.540 213.478 C 40.496 213.961,41.526 214.681,41.827 215.078 C 42.285 215.682,42.377 227.065,42.389 285.000 C 42.403 352.916,42.417 354.224,43.184 355.481 C 44.746 358.042,44.372 358.000,65.536 358.000 C 88.444 358.000,89.906 358.309,83.149 361.718 C 81.882 362.357,81.152 363.092,80.499 364.387 C 79.384 366.599,79.014 366.971,76.821 368.099 C 75.462 368.798,74.925 369.380,74.423 370.698 C 73.609 372.834,72.834 373.609,70.698 374.423 C 69.380 374.925,68.798 375.462,68.099 376.821 C 66.971 379.014,66.599 379.384,64.387 380.499 C 63.092 381.152,62.357 381.882,61.718 383.149 C 60.731 385.105,59.678 386.400,59.076 386.400 C 58.231 386.400,56.094 388.411,55.595 389.676 C 54.466 392.538,55.858 392.381,31.431 392.391 C 11.543 392.399,9.394 392.337,8.731 391.738 C 7.791 390.887,7.563 216.342,8.500 215.079 C 8.775 214.709,9.810 214.000,10.800 213.503 C 12.061 212.871,12.840 212.122,13.400 211.005 C 13.840 210.128,14.470 209.189,14.800 208.918 C 15.656 208.216,34.744 208.216,35.600 208.918 M97.520 208.880 C 98.217 209.577,98.217 309.223,97.520 309.920 C 96.879 310.561,91.121 310.561,90.480 309.920 C 89.783 309.223,89.783 209.577,90.480 208.880 C 90.769 208.591,92.169 208.400,94.000 208.400 C 95.831 208.400,97.231 208.591,97.520 208.880 M385.600 208.918 C 385.930 209.189,386.560 210.128,387.000 211.005 C 387.551 212.103,388.342 212.874,389.540 213.478 C 390.496 213.961,391.526 214.681,391.827 215.078 C 392.785 216.342,392.635 334.272,391.673 335.522 C 390.817 336.634,390.190 336.137,388.682 333.149 C 388.043 331.882,387.308 331.152,386.013 330.499 C 383.801 329.384,383.429 329.014,382.301 326.821 C 381.613 325.483,381.012 324.920,379.754 324.435 C 377.522 323.573,377.047 323.112,375.829 320.622 C 375.000 318.928,374.463 318.352,373.267 317.874 C 371.527 317.177,371.068 316.697,369.869 314.321 C 369.249 313.094,368.498 312.347,367.251 311.718 C 365.323 310.745,364.000 309.680,364.000 309.100 C 364.000 308.178,362.127 306.234,360.580 305.550 C 358.099 304.452,358.227 306.799,358.084 259.707 C 357.940 211.920,357.761 215.104,360.668 213.600 C 362.041 212.889,362.831 212.139,363.400 211.005 C 363.840 210.128,364.470 209.189,364.800 208.918 C 365.656 208.216,384.744 208.216,385.600 208.918 M108.917 292.100 C 106.396 295.411,105.928 307.439,108.188 310.853 L 109.211 312.400 150.184 312.400 L 191.157 312.400 193.579 310.981 L 196.000 309.562 195.999 302.681 C 195.999 294.833,195.645 293.522,193.200 292.301 C 191.379 291.391,109.605 291.196,108.917 292.100 M191.754 296.186 C 192.648 297.550,192.710 308.947,191.829 309.829 C 191.050 310.607,109.657 310.697,108.880 309.920 C 108.199 309.239,108.214 297.088,108.896 295.995 C 109.386 295.210,109.919 295.200,150.250 295.200 L 191.108 295.200 191.754 296.186 M361.696 317.207 C 362.347 318.499,363.081 319.243,364.321 319.869 C 366.697 321.068,367.177 321.527,367.874 323.267 C 368.352 324.463,368.928 325.000,370.622 325.829 C 373.112 327.047,373.573 327.522,374.435 329.754 C 374.920 331.012,375.483 331.613,376.821 332.301 C 379.014 333.429,379.384 333.801,380.499 336.013 C 381.163 337.330,381.873 338.036,383.200 338.697 C 385.112 339.649,386.171 340.701,387.290 342.760 C 387.702 343.518,388.635 344.324,389.603 344.757 C 392.546 346.074,392.373 344.572,392.387 368.969 C 392.399 388.860,392.337 391.006,391.738 391.669 C 390.849 392.651,216.371 392.807,215.078 391.827 C 214.681 391.526,213.961 390.496,213.478 389.540 C 212.874 388.342,212.103 387.551,211.005 387.000 C 208.360 385.673,208.425 385.973,208.425 375.200 C 208.425 364.427,208.360 364.727,211.005 363.400 C 212.122 362.840,212.871 362.061,213.503 360.800 C 214.000 359.810,214.709 358.775,215.079 358.500 C 215.612 358.105,230.207 358.000,284.896 358.000 C 361.277 358.000,355.559 358.199,357.216 355.481 C 357.962 354.258,357.997 353.337,357.999 334.989 C 358.000 312.051,358.320 310.512,361.696 317.207 M366.352 316.258 C 366.003 316.678,365.762 316.700,365.342 316.352 C 364.922 316.003,364.900 315.762,365.248 315.342 C 365.597 314.922,365.838 314.900,366.258 315.248 C 366.678 315.597,366.700 315.838,366.352 316.258 M372.752 322.658 C 372.403 323.078,372.162 323.100,371.742 322.752 C 371.322 322.403,371.300 322.162,371.648 321.742 C 371.997 321.322,372.238 321.300,372.658 321.648 C 373.078 321.997,373.100 322.238,372.752 322.658 M378.752 328.658 C 378.403 329.078,378.162 329.100,377.742 328.752 C 377.322 328.403,377.300 328.162,377.648 327.742 C 377.997 327.322,378.238 327.300,378.658 327.648 C 379.078 327.997,379.100 328.238,378.752 328.658 M385.152 335.058 C 384.803 335.478,384.562 335.500,384.142 335.152 C 383.722 334.803,383.700 334.562,384.048 334.142 C 384.397 333.722,384.638 333.700,385.058 334.048 C 385.478 334.397,385.500 334.638,385.152 335.058 M185.321 358.500 C 185.691 358.775,186.400 359.810,186.897 360.800 C 187.531 362.065,188.276 362.838,189.400 363.400 C 191.680 364.540,191.588 364.043,191.588 375.200 C 191.588 386.357,191.680 385.860,189.400 387.000 C 188.295 387.552,187.528 388.339,186.922 389.540 C 186.439 390.496,185.719 391.526,185.322 391.827 C 184.058 392.785,66.128 392.635,64.878 391.673 C 63.766 390.817,64.263 390.190,67.251 388.682 C 68.498 388.053,69.249 387.306,69.869 386.079 C 71.068 383.703,71.527 383.223,73.267 382.526 C 74.460 382.049,75.000 381.472,75.820 379.796 C 76.987 377.409,77.412 376.996,80.073 375.659 C 81.469 374.957,82.097 374.340,82.539 373.236 C 83.222 371.528,83.710 371.064,86.079 369.869 C 87.328 369.238,88.046 368.506,88.697 367.200 C 89.649 365.287,90.701 364.229,92.764 363.108 C 93.574 362.668,94.329 361.758,94.836 360.611 C 95.353 359.443,95.946 358.736,96.517 358.606 C 99.624 357.898,184.374 357.797,185.321 358.500 M85.152 366.258 C 84.803 366.678,84.562 366.700,84.142 366.352 C 83.722 366.003,83.700 365.762,84.048 365.342 C 84.397 364.922,84.638 364.900,85.058 365.248 C 85.478 365.597,85.500 365.838,85.152 366.258 M78.752 372.658 C 78.403 373.078,78.162 373.100,77.742 372.752 C 77.322 372.403,77.300 372.162,77.648 371.742 C 77.997 371.322,78.238 371.300,78.658 371.648 C 79.078 371.997,79.100 372.238,78.752 372.658 M72.752 378.658 C 72.403 379.078,72.162 379.100,71.742 378.752 C 71.322 378.403,71.300 378.162,71.648 377.742 C 71.997 377.322,72.238 377.300,72.658 377.648 C 73.078 377.997,73.100 378.238,72.752 378.658 M66.352 385.058 C 66.003 385.478,65.762 385.500,65.342 385.152 C 64.922 384.803,64.900 384.562,65.248 384.142 C 65.597 383.722,65.838 383.700,66.258 384.048 C 66.678 384.397,66.700 384.638,66.352 385.058 " stroke="none" fill="#d8a05c" fill-rule="evenodd"></path><path id="path4" d="M7.200 5.101 C 4.332 6.533,4.401 5.882,4.401 31.513 C 4.400 58.009,4.459 58.400,8.440 58.400 C 11.043 58.400,10.721 59.692,7.841 60.800 C 6.984 61.130,5.904 61.908,5.441 62.529 L 4.600 63.659 4.496 124.054 L 4.392 184.450 7.484 187.829 C 9.900 190.468,11.135 191.469,13.133 192.404 L 15.690 193.600 25.209 193.600 L 34.728 193.600 37.167 192.447 C 38.508 191.812,39.900 191.047,40.260 190.747 C 40.621 190.446,41.636 189.930,42.516 189.600 C 46.093 188.260,45.786 192.274,45.906 145.316 L 46.011 103.890 45.037 101.445 C 44.502 100.100,43.856 97.830,43.603 96.400 C 43.067 93.376,42.368 92.120,40.914 91.567 C 39.621 91.076,40.076 90.502,42.464 89.615 C 45.949 88.319,45.785 89.400,45.911 66.811 C 45.999 50.930,46.128 46.791,46.548 46.443 C 46.923 46.132,67.164 45.977,116.908 45.903 L 186.741 45.800 187.871 44.959 C 188.492 44.496,189.270 43.397,189.600 42.516 C 189.930 41.636,190.446 40.621,190.747 40.260 C 191.047 39.900,191.812 38.508,192.447 37.167 L 193.600 34.728 193.600 25.209 L 193.600 15.690 192.404 13.133 C 191.469 11.136,190.468 9.900,187.833 7.488 L 184.459 4.400 96.529 4.401 C 13.618 4.401,8.520 4.441,7.200 5.101 M212.344 7.718 C 206.961 12.828,206.800 13.337,206.800 25.200 C 206.800 35.318,207.185 37.408,209.555 40.140 C 209.908 40.547,210.467 41.608,210.798 42.499 C 212.135 46.096,208.109 45.786,255.084 45.906 L 296.510 46.011 298.955 45.037 C 300.300 44.502,302.565 43.854,303.990 43.598 C 307.163 43.027,307.815 42.695,308.480 41.308 C 309.152 39.906,309.676 39.935,310.314 41.411 C 312.425 46.294,310.895 45.999,334.051 45.999 C 349.837 46.000,353.586 46.101,353.948 46.537 C 354.271 46.926,354.422 66.310,354.497 116.908 L 354.600 186.741 355.441 187.871 C 355.904 188.492,357.003 189.270,357.884 189.600 C 358.764 189.930,359.779 190.446,360.140 190.747 C 360.500 191.047,361.892 191.812,363.233 192.447 L 365.672 193.600 375.200 193.600 L 384.728 193.600 387.229 192.417 C 389.130 191.518,390.480 190.425,392.865 187.853 L 396.000 184.470 395.999 96.535 C 395.999 13.618,395.959 8.520,395.299 7.200 C 393.852 4.302,394.613 4.379,368.329 4.496 C 341.490 4.615,343.240 4.367,341.937 8.233 C 341.185 10.463,340.820 10.606,340.086 8.956 C 337.826 3.872,345.288 4.398,275.800 4.419 L 215.800 4.437 212.344 7.718 M185.321 8.500 C 185.691 8.775,186.400 9.810,186.897 10.800 C 187.531 12.065,188.276 12.838,189.400 13.400 C 191.680 14.540,191.588 14.043,191.588 25.200 C 191.588 36.357,191.680 35.860,189.400 37.000 C 188.295 37.552,187.528 38.339,186.922 39.540 C 186.439 40.496,185.719 41.526,185.322 41.827 C 184.718 42.285,173.349 42.377,115.480 42.387 C 39.129 42.401,44.841 42.201,43.184 44.919 C 42.438 46.142,42.403 47.071,42.393 65.400 C 42.380 88.374,42.069 89.862,38.682 83.149 C 38.043 81.882,37.308 81.152,36.013 80.499 C 33.801 79.384,33.429 79.014,32.301 76.821 C 31.613 75.483,31.012 74.920,29.754 74.435 C 27.522 73.573,27.047 73.112,25.829 70.622 C 25.000 68.928,24.463 68.352,23.267 67.874 C 21.527 67.177,21.068 66.697,19.869 64.321 C 19.249 63.094,18.498 62.347,17.251 61.718 C 15.323 60.745,14.000 59.680,14.000 59.100 C 14.000 58.170,12.120 56.231,10.542 55.533 C 9.590 55.112,8.628 54.426,8.405 54.010 C 7.656 52.611,7.869 9.388,8.629 8.629 C 9.478 7.779,184.179 7.652,185.321 8.500 M335.587 8.709 C 336.649 9.569,336.123 10.217,333.149 11.718 C 331.882 12.357,331.152 13.092,330.499 14.387 C 329.384 16.599,329.014 16.971,326.821 18.099 C 325.462 18.798,324.925 19.380,324.423 20.698 C 323.609 22.834,322.834 23.609,320.698 24.423 C 319.380 24.925,318.798 25.462,318.099 26.821 C 316.971 29.014,316.599 29.384,314.387 30.499 C 313.092 31.152,312.357 31.882,311.718 33.149 C 310.745 35.077,309.680 36.400,309.100 36.400 C 308.178 36.400,306.234 38.273,305.549 39.821 C 304.504 42.185,306.824 42.064,258.692 42.260 C 211.131 42.454,215.067 42.689,213.483 39.551 C 212.874 38.342,212.106 37.552,211.005 37.000 C 208.360 35.673,208.425 35.973,208.425 25.200 C 208.425 14.427,208.360 14.727,211.005 13.400 C 212.122 12.840,212.871 12.061,213.503 10.800 C 214.000 9.810,214.709 8.775,215.079 8.500 C 216.313 7.584,334.452 7.790,335.587 8.709 M391.669 8.662 C 392.651 9.551,392.807 184.029,391.827 185.322 C 391.526 185.719,390.496 186.439,389.540 186.922 C 388.339 187.528,387.552 188.295,387.000 189.400 C 385.860 191.680,386.357 191.588,375.200 191.588 C 364.043 191.588,364.540 191.680,363.400 189.400 C 362.838 188.276,362.065 187.531,360.800 186.897 C 359.810 186.400,358.775 185.691,358.500 185.321 C 358.105 184.788,358.000 170.175,357.999 115.424 C 357.997 47.472,357.983 46.176,357.216 44.919 C 355.655 42.360,356.019 42.401,334.920 42.391 C 312.035 42.380,310.542 42.067,317.251 38.682 C 318.498 38.053,319.249 37.306,319.869 36.079 C 321.064 33.710,321.528 33.222,323.236 32.539 C 324.340 32.097,324.957 31.469,325.659 30.073 C 326.996 27.412,327.409 26.987,329.796 25.820 C 331.472 25.000,332.049 24.460,332.526 23.267 C 333.223 21.527,333.703 21.068,336.079 19.869 C 337.328 19.238,338.046 18.506,338.697 17.200 C 339.649 15.287,340.701 14.229,342.764 13.108 C 343.572 12.669,344.329 11.758,344.832 10.620 C 345.269 9.633,345.935 8.645,346.313 8.425 C 347.639 7.652,390.802 7.877,391.669 8.662 M335.152 16.258 C 334.803 16.678,334.562 16.700,334.142 16.352 C 333.722 16.003,333.700 15.762,334.048 15.342 C 334.397 14.922,334.638 14.900,335.058 15.248 C 335.478 15.597,335.500 15.838,335.152 16.258 M328.752 22.658 C 328.403 23.078,328.162 23.100,327.742 22.752 C 327.322 22.403,327.300 22.162,327.648 21.742 C 327.997 21.322,328.238 21.300,328.658 21.648 C 329.078 21.997,329.100 22.238,328.752 22.658 M322.752 28.658 C 322.403 29.078,322.162 29.100,321.742 28.752 C 321.322 28.403,321.300 28.162,321.648 27.742 C 321.997 27.322,322.238 27.300,322.658 27.648 C 323.078 27.997,323.100 28.238,322.752 28.658 M316.352 35.058 C 316.003 35.478,315.762 35.500,315.342 35.152 C 314.922 34.803,314.900 34.562,315.248 34.142 C 315.597 33.722,315.838 33.700,316.258 34.048 C 316.678 34.397,316.700 34.638,316.352 35.058 M11.696 67.207 C 12.347 68.499,13.081 69.243,14.321 69.869 C 16.697 71.068,17.177 71.527,17.874 73.267 C 18.352 74.463,18.928 75.000,20.622 75.829 C 23.112 77.047,23.573 77.522,24.435 79.754 C 24.920 81.012,25.483 81.613,26.821 82.301 C 29.014 83.429,29.384 83.801,30.499 86.013 C 31.163 87.330,31.873 88.036,33.200 88.697 C 35.113 89.649,36.171 90.701,37.292 92.764 C 37.728 93.565,38.640 94.328,39.750 94.819 C 42.197 95.902,42.063 93.404,42.260 141.708 C 42.454 189.269,42.689 185.333,39.551 186.917 C 38.338 187.528,37.554 188.292,37.000 189.400 C 35.860 191.680,36.357 191.588,25.200 191.588 C 14.043 191.588,14.540 191.680,13.400 189.400 C 12.838 188.276,12.065 187.531,10.800 186.897 C 9.810 186.400,8.775 185.691,8.500 185.321 C 7.636 184.157,7.783 66.088,8.650 64.850 C 9.454 63.703,10.233 64.306,11.696 67.207 M16.352 66.258 C 16.003 66.678,15.762 66.700,15.342 66.352 C 14.922 66.003,14.900 65.762,15.248 65.342 C 15.597 64.922,15.838 64.900,16.258 65.248 C 16.678 65.597,16.700 65.838,16.352 66.258 M22.752 72.658 C 22.403 73.078,22.162 73.100,21.742 72.752 C 21.322 72.403,21.300 72.162,21.648 71.742 C 21.997 71.322,22.238 71.300,22.658 71.648 C 23.078 71.997,23.100 72.238,22.752 72.658 M28.752 78.658 C 28.403 79.078,28.162 79.100,27.742 78.752 C 27.322 78.403,27.300 78.162,27.648 77.742 C 27.997 77.322,28.238 77.300,28.658 77.648 C 29.078 77.997,29.100 78.238,28.752 78.658 M35.152 85.058 C 34.803 85.478,34.562 85.500,34.142 85.152 C 33.722 84.803,33.700 84.562,34.048 84.142 C 34.397 83.722,34.638 83.700,35.058 84.048 C 35.478 84.397,35.500 84.638,35.152 85.058 M89.415 89.305 L 88.111 90.609 88.034 140.845 L 87.958 191.080 89.393 192.340 L 90.828 193.600 97.264 193.600 C 103.357 193.600,103.825 193.544,106.050 192.545 L 108.400 191.491 108.400 150.425 C 108.400 119.019,108.513 109.247,108.880 108.880 C 109.247 108.513,119.019 108.400,150.425 108.400 L 191.491 108.400 192.545 106.050 C 193.544 103.825,193.600 103.357,193.600 97.264 L 193.600 90.828 192.359 89.414 L 191.117 88.000 140.919 88.000 L 90.720 88.000 89.415 89.305 M201.781 89.339 L 200.400 90.720 200.400 97.288 C 200.400 103.661,200.433 103.921,201.500 106.028 L 202.600 108.200 247.000 108.400 L 291.400 108.600 291.502 149.918 L 291.604 191.236 294.102 192.418 C 296.549 193.575,296.732 193.599,303.086 193.600 L 309.572 193.600 310.986 192.359 L 312.400 191.117 312.400 140.919 L 312.400 90.720 311.093 89.413 L 309.786 88.106 256.474 88.032 L 203.161 87.959 201.781 89.339 M191.514 96.800 C 191.577 100.430,191.529 103.805,191.407 104.300 L 191.185 105.200 149.792 105.200 L 108.400 105.200 106.800 106.800 L 105.200 108.400 105.200 149.792 L 105.200 191.185 104.300 191.407 C 103.805 191.529,100.430 191.577,96.800 191.514 L 90.200 191.400 90.098 141.243 C 90.024 104.425,90.117 90.941,90.449 90.541 C 90.826 90.086,99.161 90.014,141.150 90.098 L 191.400 90.200 191.514 96.800 M309.953 90.543 C 310.283 90.940,310.376 104.509,310.302 141.243 L 310.200 191.400 303.600 191.514 C 299.970 191.577,296.595 191.529,296.100 191.407 L 295.200 191.185 295.200 149.954 C 295.200 108.843,295.198 108.720,294.368 107.556 C 292.590 105.058,295.432 105.200,247.364 105.200 C 206.047 105.200,203.457 105.159,202.957 104.500 C 202.238 103.553,202.170 91.190,202.880 90.480 C 203.633 89.727,309.327 89.789,309.953 90.543 M119.730 110.984 C 118.265 111.621,117.321 112.894,116.954 114.729 C 116.661 116.196,116.465 116.361,114.033 117.195 C 110.313 118.469,110.615 115.197,110.494 155.577 L 110.387 191.096 113.008 193.548 L 115.629 196.000 143.766 196.000 L 171.903 196.000 174.252 194.925 C 176.196 194.034,177.392 193.807,181.200 193.602 C 190.100 193.122,193.120 190.102,193.601 181.200 C 193.807 177.393,194.035 176.195,194.925 174.252 L 196.000 171.903 196.000 143.766 L 196.000 115.629 193.554 113.015 L 191.108 110.400 156.054 110.416 C 127.145 110.429,120.777 110.528,119.730 110.984 M200.569 112.957 L 198.000 115.526 198.000 143.715 L 198.000 171.903 199.075 174.252 C 199.966 176.196,200.193 177.392,200.398 181.200 C 200.738 187.513,202.171 190.031,206.800 192.457 C 208.565 193.382,208.869 193.404,222.400 193.600 L 236.200 193.800 238.851 194.908 L 241.502 196.016 260.051 195.881 L 278.600 195.746 282.610 194.327 C 284.815 193.547,287.383 192.519,288.316 192.043 L 290.013 191.177 289.906 155.618 C 289.785 115.098,290.103 118.465,286.271 117.171 C 283.984 116.398,284.002 116.416,283.229 114.129 C 281.930 110.282,285.724 110.615,241.740 110.494 L 203.138 110.388 200.569 112.957 M191.775 115.018 C 192.810 116.598,192.254 185.375,191.200 186.068 C 191.090 186.141,190.280 186.560,189.401 187.001 C 188.336 187.534,187.534 188.336,187.001 189.401 C 186.560 190.280,186.141 191.090,186.068 191.200 C 185.375 192.254,116.598 192.810,115.018 191.775 L 114.000 191.108 114.000 156.616 C 114.000 117.665,113.643 121.703,117.251 119.882 C 118.507 119.249,119.249 118.507,119.882 117.251 C 121.703 113.643,117.665 114.000,156.616 114.000 L 191.108 114.000 191.775 115.018 M278.956 114.751 C 279.329 115.164,280.032 116.289,280.518 117.251 C 281.151 118.507,281.893 119.249,283.149 119.882 C 286.757 121.703,286.400 117.665,286.400 156.619 C 286.400 186.901,286.327 191.143,285.800 191.344 C 282.837 192.482,266.880 192.565,222.307 191.677 L 208.414 191.400 207.507 189.600 C 206.871 188.338,206.122 187.561,205.000 187.000 C 202.011 185.505,202.043 185.913,201.767 146.048 L 201.558 115.896 202.449 114.948 L 203.339 114.000 240.808 114.000 C 276.952 114.000,278.300 114.027,278.956 114.751 M112.957 200.569 L 110.388 203.138 110.494 241.740 C 110.615 285.724,110.282 281.930,114.129 283.229 C 116.416 284.002,116.398 283.984,117.171 286.271 C 118.470 290.118,114.676 289.785,158.660 289.906 L 197.262 290.012 199.831 287.443 L 202.400 284.874 202.400 253.768 L 202.400 222.663 201.332 220.031 C 200.493 217.965,200.212 216.456,200.021 213.000 C 199.742 207.942,199.138 206.424,196.333 203.743 C 193.211 200.759,192.722 200.624,184.200 200.400 C 176.957 200.209,176.490 200.148,174.252 199.100 L 171.903 198.000 143.715 198.000 L 115.526 198.000 112.957 200.569 M238.600 199.136 C 236.250 200.168,235.976 200.195,225.400 200.395 C 213.400 200.623,213.314 200.641,210.277 203.544 C 207.861 205.853,207.097 207.929,206.796 213.000 C 206.594 216.422,206.299 217.985,205.468 220.031 L 204.400 222.663 204.400 253.717 L 204.400 284.771 206.852 287.392 L 209.304 290.013 244.823 289.906 C 285.296 289.785,281.935 290.103,283.229 286.271 C 284.002 283.984,283.984 284.002,286.271 283.229 C 290.124 281.928,289.800 285.745,289.800 241.714 L 289.800 203.086 288.718 202.279 C 288.124 201.835,285.604 200.745,283.118 199.856 L 278.600 198.241 259.800 198.162 L 241.000 198.083 238.600 199.136 M294.807 201.231 C 291.244 202.847,291.600 197.719,291.600 247.462 L 291.600 291.600 253.100 291.601 C 205.611 291.601,210.402 290.363,210.401 302.638 C 210.400 313.513,204.345 312.380,262.540 312.391 L 309.680 312.400 310.984 311.096 L 312.288 309.792 312.365 260.256 C 312.452 204.515,312.429 203.717,310.700 201.747 L 309.517 200.400 303.059 200.409 C 297.431 200.416,296.369 200.522,294.807 201.231 M183.746 202.221 C 191.936 202.453,191.669 202.373,193.000 205.013 C 193.576 206.156,194.359 206.887,195.800 207.625 L 197.800 208.650 198.112 213.225 C 198.284 215.741,198.518 232.808,198.633 251.152 L 198.842 284.503 197.951 285.452 L 197.061 286.400 159.592 286.400 C 117.273 286.400,121.706 286.763,119.882 283.149 C 119.249 281.893,118.507 281.151,117.251 280.518 C 113.637 278.694,114.000 283.119,114.000 240.864 L 114.000 203.452 114.889 202.505 L 115.778 201.559 145.989 201.783 C 162.605 201.906,179.596 202.103,183.746 202.221 M281.315 202.009 C 283.248 202.231,285.183 202.633,285.615 202.902 C 286.386 203.384,286.400 204.065,286.400 240.834 C 286.400 283.123,286.763 278.694,283.149 280.518 C 281.893 281.151,281.151 281.893,280.518 283.149 C 278.697 286.757,282.738 286.400,243.761 286.400 L 209.245 286.400 208.623 285.511 C 207.963 284.569,207.760 232.753,208.350 215.825 L 208.600 208.651 210.600 207.625 C 212.046 206.884,212.821 206.159,213.400 205.005 C 214.725 202.364,214.422 202.431,225.400 202.369 C 230.900 202.338,236.480 202.179,237.800 202.015 C 241.487 201.558,277.331 201.553,281.315 202.009 M309.920 202.880 C 310.617 203.577,310.617 309.223,309.920 309.920 C 309.178 310.662,215.679 310.586,214.700 309.843 C 213.519 308.947,213.662 297.412,214.870 296.126 L 215.739 295.200 253.570 295.199 C 290.385 295.197,291.434 295.176,292.681 294.416 C 295.362 292.781,295.200 295.807,295.200 247.364 C 295.200 206.047,295.241 203.457,295.900 202.957 C 296.847 202.238,309.210 202.170,309.920 202.880 M13.000 208.000 C 11.177 208.860,9.854 209.951,7.500 212.537 L 4.400 215.941 4.401 303.871 C 4.401 402.229,4.142 393.772,7.200 395.299 C 9.109 396.253,53.507 396.384,55.761 395.442 C 57.365 394.772,58.400 393.406,58.400 391.960 C 58.400 389.357,59.692 389.679,60.800 392.559 C 61.130 393.416,61.908 394.496,62.529 394.959 L 63.659 395.800 124.060 395.904 L 184.462 396.008 187.849 392.868 C 190.425 390.480,191.518 389.131,192.417 387.229 L 193.600 384.728 193.600 375.200 L 193.600 365.672 192.447 363.233 C 191.812 361.892,191.047 360.500,190.747 360.140 C 190.446 359.779,189.930 358.764,189.600 357.884 C 188.260 354.307,192.274 354.614,145.316 354.494 L 103.890 354.389 101.445 355.363 C 100.100 355.898,97.830 356.544,96.400 356.797 C 93.376 357.333,92.120 358.032,91.567 359.486 C 91.076 360.779,90.502 360.324,89.615 357.936 C 88.319 354.451,89.400 354.615,66.811 354.489 C 50.930 354.401,46.791 354.272,46.443 353.852 C 46.132 353.477,45.977 333.236,45.903 283.492 L 45.800 213.659 44.959 212.529 C 44.496 211.908,43.389 211.129,42.499 210.798 C 41.608 210.467,40.547 209.908,40.140 209.555 C 37.385 207.166,35.345 206.798,25.052 206.834 L 15.400 206.869 13.000 208.000 M89.754 207.686 C 89.119 208.174,88.468 208.759,88.306 208.986 C 88.144 209.214,88.009 231.963,88.006 259.540 L 88.000 309.680 89.360 311.040 C 90.678 312.358,90.819 312.400,93.885 312.400 C 98.086 312.400,99.201 311.414,99.659 307.295 C 100.048 303.803,100.081 209.531,99.694 208.986 C 98.550 207.375,97.052 206.800,94.000 206.800 C 91.422 206.800,90.716 206.947,89.754 207.686 M363.151 207.934 C 361.914 208.520,360.583 209.270,360.193 209.600 C 359.804 209.930,358.764 210.470,357.884 210.800 C 354.307 212.140,354.614 208.126,354.494 255.084 L 354.389 296.510 355.363 298.955 C 355.898 300.300,356.546 302.565,356.802 303.990 C 357.369 307.144,357.704 307.810,359.059 308.480 C 360.419 309.152,360.390 309.676,358.956 310.314 C 354.100 312.473,354.401 310.903,354.401 334.051 C 354.400 349.837,354.299 353.586,353.863 353.948 C 353.474 354.271,334.090 354.422,283.492 354.497 L 213.659 354.600 212.529 355.441 C 211.908 355.904,211.129 357.011,210.798 357.901 C 210.467 358.792,209.908 359.853,209.555 360.260 C 207.186 362.992,206.800 365.082,206.800 375.193 L 206.800 384.689 207.977 387.245 C 208.907 389.264,209.865 390.450,212.547 392.900 L 215.940 396.000 303.870 395.999 C 386.782 395.999,391.880 395.959,393.200 395.299 C 396.098 393.852,396.021 394.613,395.904 368.329 C 395.785 341.548,396.019 343.236,392.247 341.963 C 390.039 341.217,389.857 340.792,391.444 340.086 C 396.527 337.826,395.999 345.275,395.999 275.870 L 396.000 215.940 392.900 212.547 C 390.450 209.865,389.264 208.907,387.245 207.977 L 384.689 206.800 375.045 206.834 C 365.461 206.868,365.386 206.875,363.151 207.934 M35.600 208.918 C 35.930 209.189,36.560 210.128,37.000 211.005 C 37.551 212.103,38.342 212.874,39.540 213.478 C 40.496 213.961,41.526 214.681,41.827 215.078 C 42.285 215.682,42.377 227.065,42.389 285.000 C 42.403 352.916,42.417 354.224,43.184 355.481 C 44.746 358.042,44.372 358.000,65.536 358.000 C 88.444 358.000,89.906 358.309,83.149 361.718 C 81.882 362.357,81.152 363.092,80.499 364.387 C 79.384 366.599,79.014 366.971,76.821 368.099 C 75.462 368.798,74.925 369.380,74.423 370.698 C 73.609 372.834,72.834 373.609,70.698 374.423 C 69.380 374.925,68.798 375.462,68.099 376.821 C 66.971 379.014,66.599 379.384,64.387 380.499 C 63.092 381.152,62.357 381.882,61.718 383.149 C 60.731 385.105,59.678 386.400,59.076 386.400 C 58.231 386.400,56.094 388.411,55.595 389.676 C 54.466 392.538,55.858 392.381,31.431 392.391 C 11.543 392.399,9.394 392.337,8.731 391.738 C 7.791 390.887,7.563 216.342,8.500 215.079 C 8.775 214.709,9.810 214.000,10.800 213.503 C 12.061 212.871,12.840 212.122,13.400 211.005 C 13.840 210.128,14.470 209.189,14.800 208.918 C 15.656 208.216,34.744 208.216,35.600 208.918 M97.520 208.880 C 98.217 209.577,98.217 309.223,97.520 309.920 C 96.879 310.561,91.121 310.561,90.480 309.920 C 89.783 309.223,89.783 209.577,90.480 208.880 C 90.769 208.591,92.169 208.400,94.000 208.400 C 95.831 208.400,97.231 208.591,97.520 208.880 M385.600 208.918 C 385.930 209.189,386.560 210.128,387.000 211.005 C 387.551 212.103,388.342 212.874,389.540 213.478 C 390.496 213.961,391.526 214.681,391.827 215.078 C 392.785 216.342,392.635 334.272,391.673 335.522 C 390.817 336.634,390.190 336.137,388.682 333.149 C 388.043 331.882,387.308 331.152,386.013 330.499 C 383.801 329.384,383.429 329.014,382.301 326.821 C 381.613 325.483,381.012 324.920,379.754 324.435 C 377.522 323.573,377.047 323.112,375.829 320.622 C 375.000 318.928,374.463 318.352,373.267 317.874 C 371.527 317.177,371.068 316.697,369.869 314.321 C 369.249 313.094,368.498 312.347,367.251 311.718 C 365.323 310.745,364.000 309.680,364.000 309.100 C 364.000 308.178,362.127 306.234,360.580 305.550 C 358.099 304.452,358.227 306.799,358.084 259.707 C 357.940 211.920,357.761 215.104,360.668 213.600 C 362.041 212.889,362.831 212.139,363.400 211.005 C 363.840 210.128,364.470 209.189,364.800 208.918 C 365.656 208.216,384.744 208.216,385.600 208.918 M108.917 292.100 C 106.396 295.411,105.928 307.439,108.188 310.853 L 109.211 312.400 150.184 312.400 L 191.157 312.400 193.579 310.981 L 196.000 309.562 195.999 302.681 C 195.999 294.833,195.645 293.522,193.200 292.301 C 191.379 291.391,109.605 291.196,108.917 292.100 M191.754 296.186 C 192.648 297.550,192.710 308.947,191.829 309.829 C 191.050 310.607,109.657 310.697,108.880 309.920 C 108.199 309.239,108.214 297.088,108.896 295.995 C 109.386 295.210,109.919 295.200,150.250 295.200 L 191.108 295.200 191.754 296.186 M361.696 317.207 C 362.347 318.499,363.081 319.243,364.321 319.869 C 366.697 321.068,367.177 321.527,367.874 323.267 C 368.352 324.463,368.928 325.000,370.622 325.829 C 373.112 327.047,373.573 327.522,374.435 329.754 C 374.920 331.012,375.483 331.613,376.821 332.301 C 379.014 333.429,379.384 333.801,380.499 336.013 C 381.163 337.330,381.873 338.036,383.200 338.697 C 385.112 339.649,386.171 340.701,387.290 342.760 C 387.702 343.518,388.635 344.324,389.603 344.757 C 392.546 346.074,392.373 344.572,392.387 368.969 C 392.399 388.860,392.337 391.006,391.738 391.669 C 390.849 392.651,216.371 392.807,215.078 391.827 C 214.681 391.526,213.961 390.496,213.478 389.540 C 212.874 388.342,212.103 387.551,211.005 387.000 C 208.360 385.673,208.425 385.973,208.425 375.200 C 208.425 364.427,208.360 364.727,211.005 363.400 C 212.122 362.840,212.871 362.061,213.503 360.800 C 214.000 359.810,214.709 358.775,215.079 358.500 C 215.612 358.105,230.207 358.000,284.896 358.000 C 361.277 358.000,355.559 358.199,357.216 355.481 C 357.962 354.258,357.997 353.337,357.999 334.989 C 358.000 312.051,358.320 310.512,361.696 317.207 M366.352 316.258 C 366.003 316.678,365.762 316.700,365.342 316.352 C 364.922 316.003,364.900 315.762,365.248 315.342 C 365.597 314.922,365.838 314.900,366.258 315.248 C 366.678 315.597,366.700 315.838,366.352 316.258 M372.752 322.658 C 372.403 323.078,372.162 323.100,371.742 322.752 C 371.322 322.403,371.300 322.162,371.648 321.742 C 371.997 321.322,372.238 321.300,372.658 321.648 C 373.078 321.997,373.100 322.238,372.752 322.658 M378.752 328.658 C 378.403 329.078,378.162 329.100,377.742 328.752 C 377.322 328.403,377.300 328.162,377.648 327.742 C 377.997 327.322,378.238 327.300,378.658 327.648 C 379.078 327.997,379.100 328.238,378.752 328.658 M385.152 335.058 C 384.803 335.478,384.562 335.500,384.142 335.152 C 383.722 334.803,383.700 334.562,384.048 334.142 C 384.397 333.722,384.638 333.700,385.058 334.048 C 385.478 334.397,385.500 334.638,385.152 335.058 M185.321 358.500 C 185.691 358.775,186.400 359.810,186.897 360.800 C 187.531 362.065,188.276 362.838,189.400 363.400 C 191.680 364.540,191.588 364.043,191.588 375.200 C 191.588 386.357,191.680 385.860,189.400 387.000 C 188.295 387.552,187.528 388.339,186.922 389.540 C 186.439 390.496,185.719 391.526,185.322 391.827 C 184.058 392.785,66.128 392.635,64.878 391.673 C 63.766 390.817,64.263 390.190,67.251 388.682 C 68.498 388.053,69.249 387.306,69.869 386.079 C 71.068 383.703,71.527 383.223,73.267 382.526 C 74.460 382.049,75.000 381.472,75.820 379.796 C 76.987 377.409,77.412 376.996,80.073 375.659 C 81.469 374.957,82.097 374.340,82.539 373.236 C 83.222 371.528,83.710 371.064,86.079 369.869 C 87.328 369.238,88.046 368.506,88.697 367.200 C 89.649 365.287,90.701 364.229,92.764 363.108 C 93.574 362.668,94.329 361.758,94.836 360.611 C 95.353 359.443,95.946 358.736,96.517 358.606 C 99.624 357.898,184.374 357.797,185.321 358.500 M85.152 366.258 C 84.803 366.678,84.562 366.700,84.142 366.352 C 83.722 366.003,83.700 365.762,84.048 365.342 C 84.397 364.922,84.638 364.900,85.058 365.248 C 85.478 365.597,85.500 365.838,85.152 366.258 M78.752 372.658 C 78.403 373.078,78.162 373.100,77.742 372.752 C 77.322 372.403,77.300 372.162,77.648 371.742 C 77.997 371.322,78.238 371.300,78.658 371.648 C 79.078 371.997,79.100 372.238,78.752 372.658 M72.752 378.658 C 72.403 379.078,72.162 379.100,71.742 378.752 C 71.322 378.403,71.300 378.162,71.648 377.742 C 71.997 377.322,72.238 377.300,72.658 377.648 C 73.078 377.997,73.100 378.238,72.752 378.658 M66.352 385.058 C 66.003 385.478,65.762 385.500,65.342 385.152 C 64.922 384.803,64.900 384.562,65.248 384.142 C 65.597 383.722,65.838 383.700,66.258 384.048 C 66.678 384.397,66.700 384.638,66.352 385.058 " stroke="none" fill="#d8a05c" fill-rule="evenodd"></path></g></svg>